<?xml version="1.0" standalone="no"?>
<!DOCTYPE svg PUBLIC "-//W3C//DTD SVG 20010904//EN"
 "http://www.w3.org/TR/2001/REC-SVG-20010904/DTD/svg10.dtd">
<svg version="1.0" xmlns="http://www.w3.org/2000/svg"
 width="1057.000000pt" height="1057.000000pt" viewBox="0 0 1057.000000 1057.000000"
 preserveAspectRatio="xMidYMid meet">
<metadata>
Created by potrace 1.11, written by Peter Selinger 2001-2013
</metadata>
<g transform="translate(0.000000,1057.000000) scale(0.100000,-0.100000)"
fill="#000000" stroke="none">
<path d="M5040 10565 c-14 -2 -60 -7 -103 -10 l-79 -7 29 -31 28 -32 -36 33
c-34 31 -38 32 -94 26 l-58 -7 24 -19 c74 -57 120 -127 139 -213 8 -38 8 -50
-2 -57 -22 -13 -26 -9 -33 39 -8 52 -16 68 -94 171 -44 58 -61 72 -82 72 -25
0 -23 -4 36 -64 59 -60 106 -138 119 -198 5 -23 3 -28 -13 -28 -13 0 -20 9
-24 35 -7 40 -72 141 -130 203 -33 34 -48 42 -77 42 -60 0 -65 -10 -36 -66 14
-27 39 -64 56 -83 35 -40 73 -119 66 -138 -3 -7 -18 -13 -33 -12 -16 1 -36 -2
-45 -6 -13 -5 -19 0 -24 22 -12 53 -25 104 -31 120 -15 40 18 -3 43 -55 18
-37 29 -51 32 -40 2 10 -13 48 -32 85 -20 38 -46 89 -58 116 -19 43 -40 59
-51 40 -3 -5 13 -60 34 -123 42 -125 47 -165 24 -174 -12 -4 -15 3 -15 36 0
22 -14 81 -31 130 -17 49 -31 98 -32 109 -1 18 -6 20 -37 14 -19 -3 -43 -8
-52 -11 -20 -6 -81 -109 -75 -127 2 -6 17 13 33 43 21 42 29 50 32 34 1 -11
-6 -42 -18 -69 -11 -26 -18 -50 -15 -53 2 -3 15 17 27 44 11 27 23 43 26 36 7
-21 -7 -55 -34 -87 l-27 -29 -18 22 c-10 13 -30 54 -46 92 -15 38 -34 70 -40
70 -18 0 -365 -89 -371 -95 -3 -3 3 -58 13 -123 10 -64 19 -132 19 -151 1 -49
-20 -50 -28 -1 -8 53 -26 43 -19 -10 4 -25 2 -40 -5 -40 -6 0 -17 -3 -26 -6
-14 -5 -16 12 -16 156 0 150 -1 162 -17 155 -10 -4 -33 -12 -52 -17 -25 -7
-30 -13 -22 -21 13 -13 14 -27 2 -46 -8 -12 -12 -12 -25 -2 -21 18 -39 4 -31
-26 l6 -24 -23 21 c-19 17 -21 24 -10 40 22 35 -11 24 -47 -17 -20 -23 -30
-42 -25 -52 5 -13 8 -12 15 7 11 29 33 28 47 -3 16 -34 15 -45 -3 -45 -19 0
-19 -7 1 -27 23 -24 3 -37 -42 -27 -37 9 -65 36 -51 50 4 4 15 -1 26 -10 13
-12 21 -14 26 -6 10 16 -73 110 -91 103 -18 -7 -18 -12 6 -48 29 -44 26 -64
-5 -35 -13 13 -27 31 -31 42 -7 23 -20 23 -83 -3 -31 -13 -51 -28 -51 -38 0
-11 -3 -12 -8 -4 -4 7 -17 10 -30 6 -22 -5 -22 -7 -6 -24 10 -11 14 -22 10
-26 -4 -4 -15 2 -24 14 -11 15 -22 20 -30 14 -10 -6 -10 -10 3 -21 8 -7 15
-17 15 -23 0 -6 -11 0 -24 12 l-25 23 -57 -27 c-31 -15 -77 -35 -101 -46 -49
-21 -49 -10 -10 -129 11 -36 23 -69 27 -75 12 -16 22 -135 12 -135 -5 0 -17
27 -26 60 -9 32 -21 62 -26 65 -13 8 -12 -1 5 -59 17 -55 19 -86 7 -86 -11 0
-47 124 -75 258 -5 28 -14 52 -19 52 -12 0 -10 -17 13 -100 41 -150 59 -223
57 -225 -2 -1 -12 -7 -23 -13 -20 -10 -22 -4 -54 126 -19 75 -37 148 -42 162
-15 48 2 -63 28 -177 24 -105 25 -152 4 -139 -5 3 -12 22 -15 41 -4 19 -11 35
-16 35 -13 0 -13 -20 1 -59 10 -28 9 -34 -7 -46 -12 -8 -23 -10 -30 -4 -8 6
-13 3 -16 -9 -3 -10 -22 -28 -41 -40 l-37 -21 -4 22 c-7 31 -34 212 -41 270
-4 26 -8 47 -11 47 -14 0 -300 -175 -308 -189 -12 -19 33 -43 71 -39 32 5 48
-1 97 -33 70 -47 106 -50 132 -12 l18 28 13 -50 c12 -48 12 -51 -12 -70 -14
-11 -38 -28 -55 -38 l-30 -18 -43 40 c-23 22 -56 43 -72 47 -43 10 -83 41
-111 85 -13 21 -31 39 -38 39 -8 0 -81 -50 -163 -112 -411 -310 -657 -535
-918 -843 -358 -422 -638 -879 -849 -1384 l-86 -204 44 -47 c54 -58 93 -134
134 -260 17 -52 37 -110 45 -128 13 -31 11 -45 -20 -170 -18 -75 -33 -144 -33
-155 0 -27 -17 -11 -25 23 -3 16 -35 74 -71 130 -35 56 -64 109 -64 119 0 22
-23 56 -73 108 l-41 43 -13 -32 -14 -32 69 -66 c38 -36 80 -86 92 -110 13 -25
35 -63 50 -86 16 -22 38 -71 49 -110 l22 -70 -20 -121 c-11 -66 -25 -175 -33
-242 -12 -120 -13 -122 -31 -99 -10 13 -31 46 -47 73 -16 28 -74 101 -130 163
-55 62 -100 117 -100 122 0 23 29 6 77 -46 29 -31 53 -52 53 -47 0 15 -48 72
-107 126 l-51 48 -6 -28 c-58 -290 -92 -725 -83 -1073 8 -310 34 -554 88 -845
20 -107 21 -111 68 -160 79 -82 149 -181 195 -278 40 -83 81 -197 71 -197 -2
0 -29 49 -59 108 -31 59 -73 130 -93 158 -63 83 -133 160 -133 144 1 -63 36
-133 150 -300 15 -22 35 -100 25 -100 -2 0 -20 26 -41 57 -21 31 -39 52 -41
47 -2 -6 15 -47 37 -92 41 -84 49 -117 28 -124 -7 -3 7 -53 42 -146 51 -138
54 -142 86 -148 18 -3 54 -17 80 -30 50 -26 80 -30 86 -14 2 6 20 -2 40 -16
30 -22 40 -24 52 -15 11 10 16 9 23 -4 8 -14 100 -47 178 -64 44 -9 58 -21 87
-72 l25 -46 -100 34 c-55 18 -111 40 -126 47 -36 19 -204 62 -274 71 l-57 6
21 -48 c44 -98 163 -343 167 -343 2 0 15 14 29 31 15 17 43 41 63 54 36 23
140 59 147 51 3 -2 -15 -19 -38 -37 -68 -55 -150 -160 -147 -188 4 -31 24 -38
33 -12 9 31 133 154 189 190 92 58 156 39 218 -64 l40 -66 -64 -67 c-35 -37
-71 -78 -80 -92 -15 -21 -19 -23 -28 -10 -9 13 -11 13 -19 0 -7 -9 -6 -17 1
-21 11 -7 2 -49 -12 -49 -5 0 -10 8 -13 18 -4 16 -4 16 -12 -2 -5 -12 -3 -21
6 -27 8 -5 11 -9 7 -10 -5 -1 -11 -2 -15 -3 -21 -4 -42 -24 -57 -54 l-17 -34
72 -106 c74 -110 193 -267 210 -277 12 -8 28 34 44 121 9 42 27 94 46 125 36
61 127 179 138 179 20 0 19 -16 -3 -39 -13 -14 -31 -39 -41 -56 -12 -21 -4
-15 27 19 62 67 74 43 16 -31 -75 -97 -88 -116 -138 -208 -72 -133 -72 -131
-7 -217 64 -85 328 -372 342 -373 6 0 13 25 16 55 4 30 14 77 23 103 13 37 15
52 6 62 -15 18 33 169 75 234 l27 44 31 -31 c29 -30 30 -32 14 -50 -9 -10 -17
-23 -17 -28 1 -5 10 2 21 15 l19 24 116 -117 115 -116 -11 -72 c-10 -60 -9
-94 3 -187 9 -62 13 -120 10 -129 -4 -8 1 -20 9 -26 8 -6 22 -26 32 -43 9 -18
27 -49 41 -69 14 -20 25 -44 25 -52 0 -27 40 -100 58 -106 9 -4 37 -17 61 -31
31 -17 50 -21 61 -15 11 6 21 5 28 -2 9 -9 12 -8 12 5 0 10 8 17 19 17 11 0
22 4 25 8 12 20 110 2 234 -43 98 -35 171 -44 187 -22 9 12 30 17 81 18 65 2
126 19 139 38 3 5 60 -17 128 -49 171 -81 296 -134 485 -205 161 -61 164 -63
203 -114 21 -28 39 -53 39 -56 0 -3 30 -43 66 -91 37 -47 86 -120 109 -162 23
-43 62 -110 86 -150 51 -84 44 -81 244 -111 129 -20 149 -23 275 -41 135 -19
290 -30 435 -33 l150 -2 6 240 c3 132 6 241 7 243 1 1 7 2 13 2 8 0 9 -70 4
-245 -6 -242 -6 -245 14 -245 15 0 28 16 49 63 16 34 46 87 66 117 51 76 113
207 120 255 l6 40 -16 -40 c-9 -22 -22 -56 -30 -75 -17 -40 -143 -240 -144
-226 0 4 23 49 52 100 28 50 66 127 84 171 29 73 35 80 62 82 25 2 31 -2 35
-25 3 -15 3 -48 0 -73 -3 -29 -1 -49 6 -53 16 -11 13 -96 -5 -131 -9 -16 -27
-59 -40 -94 -13 -36 -29 -71 -36 -78 -6 -7 -8 -17 -4 -21 12 -12 32 24 62 109
15 43 31 79 36 79 17 0 7 -61 -22 -124 -16 -36 -26 -66 -22 -66 4 0 16 20 27
45 21 49 35 58 35 23 0 -13 3 -33 7 -46 7 -28 -25 -30 493 34 80 10 352 65
398 81 62 21 76 36 69 79 -3 18 -2 34 4 34 5 0 9 -6 9 -14 0 -8 11 -28 25 -43
l24 -28 -2 39 c-3 48 16 57 33 16 14 -35 50 -42 50 -10 0 23 15 27 27 6 7 -11
29 -7 123 21 63 20 141 44 173 55 l58 21 -7 83 c-8 103 -2 106 81 29 33 -30
65 -55 70 -55 11 0 130 49 228 94 48 22 56 30 48 44 -15 27 -218 253 -256 285
-56 46 -61 63 -25 82 30 16 32 15 69 -17 40 -34 155 -170 229 -270 24 -32 49
-58 58 -58 23 0 94 39 94 52 0 12 -56 103 -118 193 -101 147 -124 187 -113
198 8 8 16 6 30 -8 25 -27 172 -248 207 -312 16 -29 35 -53 42 -53 18 0 15 11
-13 52 -14 20 -25 40 -25 43 0 4 -8 19 -19 33 -28 40 -163 274 -159 276 2 1
20 12 41 24 l37 21 36 -72 c65 -129 126 -242 140 -258 8 -8 14 -20 14 -25 0
-5 8 -19 18 -32 16 -20 19 -21 37 -8 20 15 20 16 1 48 -62 110 -106 191 -106
197 0 3 21 6 47 6 44 1 50 -3 128 -77 46 -43 87 -78 92 -78 11 0 131 75 148
92 6 6 -4 3 -22 -6 -37 -19 -43 -20 -43 -6 0 6 5 10 11 10 6 0 18 7 26 16 9 9
25 13 38 10 22 -6 123 49 112 61 -4 3 -39 17 -79 31 -65 22 -89 25 -213 26
-84 0 -151 -5 -167 -12 -26 -11 -28 -10 -28 12 0 14 13 38 30 54 34 35 82 43
235 41 97 -2 172 -19 292 -70 27 -11 35 -11 45 0 11 10 8 16 -12 33 l-25 20
50 -6 c49 -7 53 -6 107 36 32 24 58 46 58 49 0 15 -271 131 -357 153 -47 12
-53 20 -24 36 30 15 68 12 113 -10 23 -11 45 -20 50 -20 5 0 61 -29 125 -65
64 -36 122 -65 128 -65 7 0 19 8 28 18 15 16 10 21 -68 80 -46 34 -87 62 -92
62 -18 0 -83 51 -83 65 0 17 31 20 58 6 9 -5 37 -17 61 -27 24 -10 58 -30 75
-44 18 -14 56 -36 84 -49 l52 -24 24 22 c25 24 25 61 0 61 -15 0 -134 77 -146
94 -8 12 21 46 68 78 19 13 34 28 34 35 0 7 6 10 13 7 7 -2 31 9 52 26 21 16
43 30 50 30 7 0 25 10 40 21 41 33 195 105 240 113 31 5 11 -8 -85 -56 -172
-88 -300 -172 -300 -199 0 -16 16 -10 61 25 24 19 76 51 114 71 39 21 76 42
83 48 7 5 15 8 18 5 4 -5 -59 -58 -70 -58 -10 0 -109 -62 -149 -93 -26 -20
-35 -33 -28 -40 6 -6 19 -2 38 12 40 32 346 211 359 211 11 0 178 181 234 253
l21 27 -25 0 c-46 0 -150 -30 -362 -103 -101 -36 -212 -93 -266 -138 -40 -34
-190 -129 -203 -129 -2 0 -31 -19 -65 -43 -66 -45 -145 -93 -170 -103 -22 -9
-88 -38 -144 -63 -26 -12 -50 -20 -52 -18 -2 2 44 40 103 83 176 130 411 331
511 435 111 115 108 114 337 158 60 12 114 26 119 31 15 15 -28 12 -104 -6
-36 -9 -92 -22 -125 -29 -33 -7 -69 -17 -80 -21 -11 -4 14 30 55 77 l74 84
111 1 c137 2 140 2 131 11 -4 5 -54 10 -111 13 l-104 5 40 51 c39 51 41 52 85
48 25 -3 94 -18 152 -35 59 -16 144 -40 190 -53 l83 -23 63 91 c101 146 187
286 187 304 0 9 -14 55 -30 102 -23 63 -31 103 -31 155 0 39 -5 162 -11 275
l-11 205 51 123 c58 138 83 203 148 382 25 69 49 129 54 134 5 6 9 21 9 34 0
29 40 103 52 96 4 -3 8 28 8 68 0 40 9 109 20 153 11 44 20 93 20 110 0 51 24
185 33 185 4 0 5 5 2 10 -6 10 9 162 21 219 l5 24 22 -31 c24 -35 44 -44 27
-13 -5 11 -10 26 -10 33 0 7 22 -21 49 -62 28 -41 62 -86 76 -100 14 -14 37
-36 51 -49 13 -13 26 -22 29 -20 8 9 -57 99 -72 99 -10 0 -12 6 -8 19 3 11 1
22 -4 26 -7 4 -8 -1 -4 -12 6 -16 5 -16 -11 -4 -47 39 -130 204 -136 271 -6
75 1 281 10 275 6 -3 10 0 10 9 0 8 -4 16 -9 18 -5 2 -11 125 -14 273 -5 284
-22 448 -72 704 -24 124 -28 176 -6 83 15 -60 91 -179 126 -198 34 -18 34 -18
28 6 -8 32 11 23 31 -14 10 -19 30 -45 43 -58 l25 -23 -7 30 c-4 17 -9 38 -12
48 -5 20 1 21 29 6 19 -10 20 -9 14 15 -6 25 -5 26 14 16 19 -10 21 -9 18 12
-2 15 2 23 12 23 8 0 18 5 23 10 4 6 11 3 18 -7 52 -89 5 177 -87 492 -105
358 -250 714 -417 1029 -49 91 -51 94 -65 73 -8 -12 -21 -22 -29 -22 -10 0
-14 -7 -10 -20 7 -28 -12 -14 -25 18 -5 15 -14 71 -18 124 -9 92 -23 138 -52
170 -7 7 -22 29 -32 48 -11 19 -40 63 -64 98 -44 63 -45 64 -58 41 -7 -13 -10
-27 -8 -31 16 -25 9 -77 -18 -136 -49 -107 -50 -111 -27 -105 20 6 27 -11 9
-22 -6 -4 -23 -32 -39 -63 l-29 -56 -20 33 c-21 34 -21 35 -1 62 35 49 20 68
-17 22 -20 -25 -23 -26 -29 -10 -5 13 4 32 33 66 56 66 158 269 143 284 -6 6
-12 9 -14 6 -3 -2 -25 -53 -51 -114 -26 -60 -60 -123 -75 -140 -15 -16 -35
-41 -44 -55 -12 -16 -17 -19 -17 -9 0 9 13 35 30 57 54 75 152 280 142 298 -7
13 -17 2 -46 -51 -63 -112 -143 -239 -153 -242 -6 -2 -26 21 -46 50 -33 51
-34 56 -21 76 9 12 13 27 11 34 -2 7 -10 0 -17 -15 -10 -21 -16 -25 -26 -18
-6 6 -10 20 -7 31 4 14 1 18 -9 14 -10 -4 -17 2 -21 16 -4 15 6 36 34 74 37
50 48 75 31 75 -4 0 -30 -22 -57 -50 -57 -58 -79 -56 -32 3 41 53 87 121 87
130 0 4 -11 5 -25 1 -23 -6 -25 -4 -25 29 0 35 15 58 22 35 2 -6 10 -8 17 -4
9 6 9 11 0 22 -9 11 -6 21 15 48 14 19 26 38 26 41 0 27 -311 361 -324 348 -3
-4 -6 -14 -6 -24 0 -10 -5 -21 -11 -24 -6 -5 -9 9 -8 41 3 42 -1 50 -28 73
-16 14 -81 71 -144 126 -145 129 -249 213 -374 306 -163 121 -223 160 -229
146 -2 -7 -5 -5 -5 4 -1 18 -27 33 -35 21 -8 -13 18 -92 30 -92 6 0 25 -7 41
-15 30 -15 45 -41 155 -268 13 -28 -2 -42 -17 -15 -34 62 -86 140 -80 118 5
-14 18 -41 29 -60 28 -45 46 -87 46 -106 0 -25 -15 -8 -65 75 -27 45 -51 79
-53 76 -2 -2 19 -51 46 -109 28 -58 47 -106 43 -106 -11 0 -45 39 -71 80 -16
25 -21 29 -17 13 3 -13 2 -23 -2 -23 -10 0 -46 40 -60 68 -9 16 -18 21 -32 17
-15 -5 -19 -2 -19 19 0 28 -16 36 -22 11 -5 -22 -68 21 -68 46 0 19 -3 27 -34
86 -29 56 -65 163 -56 168 11 7 14 1 30 -50 16 -50 48 -97 61 -89 6 3 2 19 -9
37 -11 18 -29 57 -41 88 -22 57 -22 57 -3 95 l19 37 24 -47 c26 -52 44 -72 53
-58 7 12 -53 102 -78 116 -14 9 -20 7 -30 -7 -119 -187 -165 -247 -182 -240
-12 4 -13 8 -2 24 7 10 48 65 91 123 42 58 77 113 77 121 0 26 -26 16 -52 -20
l-25 -35 -18 42 c-24 55 -22 53 -42 37 -16 -13 -17 -12 -5 3 11 14 11 21 -4
44 -13 18 -19 22 -23 13 -2 -8 -10 -17 -17 -21 -10 -6 -9 -17 2 -53 7 -25 9
-43 4 -40 -17 11 -11 -45 10 -85 11 -22 16 -40 11 -40 -5 0 -31 54 -57 120
-26 66 -52 120 -57 120 -5 0 -6 -12 -3 -27 16 -65 24 -108 21 -111 -3 -3 -61
160 -70 198 -6 24 -5 24 9 6 8 -10 18 -24 21 -30 3 -8 7 -7 11 2 3 6 13 12 22
12 16 0 -65 48 -132 78 l-28 12 7 -42 c4 -24 24 -88 45 -143 21 -55 41 -110
45 -122 8 -27 35 -31 35 -5 1 15 2 15 15 -2 19 -26 19 -47 0 -40 -11 5 -15 -1
-15 -19 0 -36 -18 -43 -30 -13 -9 26 -25 34 -32 17 -1 -5 -66 22 -143 60 -118
58 -141 73 -147 96 -9 35 -2 42 18 17 14 -17 15 -11 10 78 -5 83 -3 103 15
143 11 26 19 49 16 51 -23 23 -431 170 -633 228 -168 48 -433 110 -440 103 -3
-2 -12 -33 -20 -68 -46 -195 -63 -249 -64 -208 0 9 4 29 9 45 24 75 53 226 45
234 -16 16 -384 70 -473 70 -18 0 -18 -2 -8 -238 2 -34 0 -57 -4 -50 -6 12
-29 140 -44 249 l-7 46 -56 7 c-66 7 -605 16 -642 11z m-416 -133 c69 -85 122
-202 92 -202 -7 0 -21 24 -30 54 -10 30 -25 61 -33 68 -19 15 -93 127 -93 140
0 15 8 8 64 -60z m305 -68 c13 -52 14 -114 2 -114 -12 0 -21 26 -21 61 0 29
-41 139 -63 170 -7 8 7 -5 30 -29 26 -28 45 -61 52 -88z m41 116 c6 -11 8 -20
6 -20 -3 0 -10 9 -16 20 -6 11 -8 20 -6 20 3 0 10 -9 16 -20z m-261 -89 c20
-31 45 -76 55 -99 17 -37 18 -45 6 -52 -11 -7 -17 0 -26 28 -16 56 -41 101
-93 167 -45 58 -45 59 -12 36 18 -13 50 -49 70 -80z m-292 52 c-3 -10 -5 -4
-5 12 0 17 2 24 5 18 2 -7 2 -21 0 -30z m554 -55 c32 -63 44 -74 35 -30 -4 23
-3 22 10 -7 18 -41 12 -76 -17 -92 -11 -6 -22 -9 -24 -7 -2 2 -8 36 -13 75 -6
41 -20 88 -31 107 -12 18 -21 37 -21 42 1 15 30 -28 61 -88z m-524 -55 c4 -52
1 -77 -11 -101 -23 -45 -34 -48 -67 -16 -33 31 -36 46 -13 65 8 7 24 29 34 48
l19 36 1 -45 c0 -25 -7 -55 -15 -67 -9 -13 -11 -24 -6 -28 6 -3 16 7 24 22 18
37 29 120 17 128 -6 3 -10 16 -10 28 0 15 3 18 11 10 6 -6 14 -43 16 -80z
m1297 -20 c11 -68 9 -75 -21 -71 -25 3 -28 7 -25 36 3 37 18 72 31 72 5 0 11
-17 15 -37z m397 -1 c-14 -27 -14 -32 4 -32 8 0 15 4 15 8 0 5 7 17 16 28 15
18 15 18 9 -10 -4 -17 -2 -32 5 -36 16 -10 -10 -89 -27 -84 -7 2 -21 7 -30 10
-10 4 -31 7 -48 8 -16 1 -46 3 -65 4 -60 4 -65 14 -36 61 32 50 50 54 30 6
-27 -65 -8 -80 21 -15 10 22 26 47 37 57 18 16 19 16 12 -27 -5 -31 -4 -41 4
-36 7 4 12 12 12 18 0 14 41 70 47 64 2 -2 0 -13 -6 -24z m179 -1 c-5 -11 -10
-28 -10 -38 0 -13 7 -8 22 16 29 46 35 23 10 -42 -12 -28 -23 -60 -26 -69 -8
-25 -26 -22 -27 5 -1 16 -2 18 -6 5 -2 -10 -11 -18 -19 -18 -12 0 -11 7 4 38
10 20 24 56 32 80 7 23 17 42 22 42 5 0 4 -9 -2 -19z m144 -6 c-7 -30 12 -34
21 -5 7 22 20 26 30 10 5 -8 12 -7 22 2 14 11 15 10 9 -10 -4 -13 -3 -22 3
-22 5 0 13 9 16 20 3 11 13 20 21 20 12 0 14 -7 9 -30 -8 -36 0 -38 25 -7 17
20 19 21 25 4 5 -12 14 -16 26 -12 21 7 24 -6 8 -37 -14 -27 -4 -35 19 -15 40
36 63 11 32 -33 -25 -35 -39 -100 -21 -100 6 0 11 10 11 23 0 34 37 87 60 87
23 0 26 -19 8 -39 -11 -11 -8 -12 14 -7 40 9 43 -10 9 -50 -17 -19 -31 -42
-31 -52 1 -14 4 -13 21 7 11 13 24 31 28 40 8 13 12 13 25 2 23 -19 20 -27
-15 -52 l-31 -22 -82 23 c-44 13 -82 24 -84 26 -2 1 2 12 8 24 6 11 10 29 7
38 -2 12 -8 5 -20 -20 -17 -41 -47 -44 -47 -4 -1 19 -2 19 -11 4 -5 -10 -16
-18 -24 -18 -11 0 -12 7 -4 32 11 41 11 48 -1 48 -5 0 -12 -16 -16 -35 -4 -22
-12 -35 -21 -35 -10 0 -14 7 -10 20 3 11 2 22 -3 25 -4 3 -10 -4 -13 -15 -7
-27 -27 -25 -27 3 -1 20 -2 20 -11 5 -5 -10 -14 -18 -19 -18 -6 0 -10 8 -11
18 0 10 -3 12 -6 5 -2 -7 -14 -13 -25 -13 -15 0 -18 4 -13 18 15 35 17 52 7
52 -5 0 -12 -13 -15 -30 -5 -21 -12 -30 -26 -30 -19 0 -18 4 10 73 29 71 70
130 54 80 -9 -32 13 -30 25 2 5 14 16 25 25 25 11 0 14 -6 9 -25z m-1960 -62
c4 -31 3 -43 -6 -43 -7 0 -24 -3 -38 -7 -24 -6 -24 -6 -9 18 9 13 19 42 23 64
9 46 20 34 30 -32z m1406 7 c0 -11 -7 -20 -15 -20 -18 0 -19 12 -3 28 16 16
18 15 18 -8z m-2194 -27 c-11 -11 -19 6 -11 24 8 17 8 17 12 0 3 -10 2 -21 -1
-24z m2224 7 c0 -5 -5 -10 -11 -10 -5 0 -7 5 -4 10 3 6 8 10 11 10 2 0 4 -4 4
-10z m-2266 -46 c7 -19 -2 -37 -15 -29 -12 8 -12 45 0 45 5 0 12 -7 15 -16z
m341 -34 c21 -22 37 -42 34 -44 -2 -2 -17 -6 -33 -8 -26 -3 -29 0 -41 45 -6
26 -9 47 -5 47 3 0 23 -18 45 -40z m-286 -7 c14 -27 9 -29 -13 -7 -9 8 -13 20
-10 25 7 12 7 11 23 -18z m-349 -13 c0 -5 -4 -10 -10 -10 -5 0 -10 5 -10 10 0
6 5 10 10 10 6 0 10 -4 10 -10z m2390 -51 c162 -14 394 -53 578 -95 86 -20
182 -42 212 -49 138 -31 311 -93 577 -206 207 -87 327 -143 373 -173 19 -13
85 -51 145 -86 236 -136 510 -321 616 -418 30 -27 102 -90 161 -139 194 -163
524 -525 684 -748 171 -240 461 -732 479 -814 2 -9 32 -81 65 -161 94 -221
186 -478 194 -540 2 -14 5 -25 6 -25 1 0 3 -11 5 -25 2 -14 12 -61 23 -105 33
-128 69 -318 94 -485 21 -144 23 -187 23 -620 0 -433 -2 -476 -23 -620 -25
-167 -61 -357 -94 -485 -11 -44 -21 -91 -23 -105 -2 -14 -4 -25 -5 -25 -1 0
-4 -11 -6 -25 -8 -62 -100 -319 -194 -540 -33 -80 -63 -152 -65 -161 -18 -82
-308 -574 -479 -814 -160 -223 -490 -585 -684 -748 -59 -49 -131 -112 -161
-139 -106 -97 -380 -282 -616 -418 -60 -35 -126 -73 -145 -86 -46 -30 -166
-86 -373 -173 -266 -113 -439 -175 -577 -206 -30 -7 -126 -29 -212 -49 -368
-85 -577 -106 -1038 -106 -461 0 -670 21 -1038 106 -86 20 -182 42 -212 49
-138 31 -311 93 -577 206 -207 87 -327 143 -373 173 -19 13 -84 51 -145 86
-236 136 -510 321 -616 418 -30 27 -102 90 -161 139 -194 163 -524 525 -684
748 -171 240 -461 732 -479 814 -2 9 -32 81 -65 161 -94 221 -186 478 -194
540 -2 14 -5 25 -6 25 -1 0 -3 11 -5 25 -2 14 -12 61 -23 105 -33 128 -69 318
-94 485 -21 144 -23 187 -23 620 0 433 2 476 23 620 25 167 61 357 94 485 11
44 21 91 23 105 2 14 4 25 5 25 1 0 4 11 6 25 8 62 100 319 194 540 33 80 63
152 65 161 18 82 308 574 479 814 160 223 490 585 684 748 59 49 131 112 161
139 106 97 380 282 616 418 61 35 126 73 145 86 107 70 630 287 835 347 268
78 647 153 890 176 132 12 801 13 935 0z m-2473 -29 c13 -34 7 -37 -25 -14
-26 18 -29 44 -4 44 10 0 22 -12 29 -30z m3583 -35 c-10 -10 -20 -11 -30 -5
-13 8 -12 11 5 24 25 18 46 3 25 -19z m749 -129 c23 -60 40 -111 38 -112 -7
-7 -84 173 -91 211 -9 56 4 31 53 -99z m-4169 39 c10 -12 5 -17 -26 -30 -68
-28 -79 -28 -94 -1 -17 32 -10 39 23 27 18 -7 30 -6 43 4 24 18 39 18 54 0z
m-343 -172 c-19 -10 -23 -8 -34 19 -22 52 -15 61 21 26 34 -33 35 -33 13 -45z
m4753 8 c0 -6 -4 -13 -10 -16 -5 -3 -10 1 -10 9 0 9 5 16 10 16 6 0 10 -4 10
-9z m140 -316 c0 -3 -4 -5 -8 -5 -12 0 -82 151 -82 175 0 11 21 -22 45 -73 25
-50 45 -94 45 -97z m-6054 -172 c3 -16 10 -38 15 -51 13 -32 11 -42 -5 -42 -8
0 -17 15 -21 38 -3 20 -9 47 -12 60 -3 12 -1 22 6 22 6 0 13 -12 17 -27z
m6525 -10 c13 -16 12 -17 -3 -4 -10 7 -18 15 -18 17 0 8 8 3 21 -13z m-6598
-98 c-7 -21 -13 -19 -13 6 0 11 4 18 10 14 5 -3 7 -12 3 -20z m6687 -7 c0 -5
-7 -3 -15 6 -8 8 -15 18 -15 22 0 3 7 1 15 -6 8 -7 15 -17 15 -22z m-6573 -10
c-3 -8 -6 -5 -6 6 -1 11 2 17 5 13 3 -3 4 -12 1 -19z m6573 -39 c0 -6 -4 -7
-10 -4 -5 3 -10 11 -10 16 0 6 5 7 10 4 6 -3 10 -11 10 -16z m-6660 -59 c0
-24 0 -24 -19 -5 -14 14 -18 28 -14 49 l6 29 13 -24 c7 -13 13 -35 14 -49z
m133 7 c-7 -11 -17 6 -28 43 -6 24 -5 23 14 -4 11 -17 17 -34 14 -39z m-106
21 c-3 -7 -5 -2 -5 12 0 14 2 19 5 13 2 -7 2 -19 0 -25z m73 -48 c0 -30 -14
-47 -25 -30 -9 15 5 71 16 64 5 -3 9 -18 9 -34z m-40 -51 c0 -11 -4 -17 -10
-14 -5 3 -10 15 -10 26 0 11 5 17 10 14 6 -3 10 -15 10 -26z m6936 4 c-10 -10
-19 5 -10 18 6 11 8 11 12 0 2 -7 1 -15 -2 -18z m99 -53 c-10 -33 -22 -60 -27
-60 -12 0 -10 9 12 70 11 30 20 57 20 59 0 2 3 1 7 -2 3 -4 -2 -34 -12 -67z
m-7085 24 c0 -8 -4 -12 -10 -9 -5 3 -10 10 -10 16 0 5 5 9 10 9 6 0 10 -7 10
-16z m7025 -171 c-12 -76 -28 -124 -37 -115 -6 6 -1 37 12 81 23 77 34 93 25
34z m305 -143 c0 -5 -5 -10 -11 -10 -5 0 -7 5 -4 10 3 6 8 10 11 10 2 0 4 -4
4 -10z m-46 -145 c-9 -14 -21 -25 -27 -25 -6 0 0 11 13 25 13 14 25 25 27 25
2 0 -4 -11 -13 -25z m-7999 -77 c17 -9 44 -18 60 -21 17 -3 56 -15 88 -27 l57
-21 -31 -43 -30 -43 -37 18 c-20 9 -54 25 -74 34 -27 12 -50 37 -87 95 -28 43
-51 82 -51 86 0 4 17 -8 38 -28 20 -20 51 -42 67 -50z m8015 42 c-6 -12 -14
-19 -17 -17 -2 3 1 15 7 27 6 12 14 19 17 17 2 -3 -1 -15 -7 -27z m319 -557
c-12 -21 -23 -41 -26 -46 -2 -4 -9 -5 -14 -2 -12 8 36 84 53 85 4 0 -2 -17
-13 -37z m380 -397 c20 -22 46 -103 41 -131 -1 -5 -2 -75 -4 -154 -2 -140 -3
-144 -27 -157 -38 -21 -44 -17 -64 39 -10 28 -42 108 -71 176 l-53 125 65 63
c36 35 71 63 78 63 7 0 23 -11 35 -24z m38 -498 c37 -16 43 -26 43 -68 -1 -30
-34 -91 -44 -79 -1 2 -15 36 -29 76 -25 68 -25 73 0 82 1 1 15 -5 30 -11z
m-9693 -280 c24 -34 19 -44 -9 -18 -14 13 -25 27 -25 32 0 16 19 8 34 -14z
m9915 -1790 c5 -13 11 -34 15 -48 l7 -25 -20 25 c-18 22 -29 70 -16 70 3 0 9
-10 14 -22z m-9796 -675 c33 -12 46 -22 42 -31 -3 -8 11 -40 30 -72 65 -107
175 -358 175 -399 0 -18 -23 27 -60 114 -68 162 -183 355 -232 389 -29 21 -15
20 45 -1z m-62 -80 c13 -16 12 -17 -3 -4 -10 7 -18 15 -18 17 0 8 8 3 21 -13z
m183 -272 c9 -17 15 -31 12 -31 -5 0 -66 107 -66 117 0 9 30 -38 54 -86z
m9193 -933 c-3 -8 -6 -5 -6 6 -1 11 2 17 5 13 3 -3 4 -12 1 -19z m-133 -90
c-28 -54 -110 -172 -135 -193 -12 -11 -2 7 22 40 25 33 58 83 74 110 16 28 33
56 38 63 17 22 18 12 1 -20z m-294 -378 c0 -5 -5 -10 -11 -10 -5 0 -7 5 -4 10
3 6 8 10 11 10 2 0 4 -4 4 -10z m-680 -1010 c0 -5 -5 -10 -11 -10 -5 0 -7 5
-4 10 3 6 8 10 11 10 2 0 4 -4 4 -10z m-890 -451 c0 -5 -4 -9 -10 -9 -5 0 -10
7 -10 16 0 8 5 12 10 9 6 -3 10 -10 10 -16z m400 -169 c-20 -13 -33 -13 -25 0
3 6 14 10 23 10 15 0 15 -2 2 -10z m-3834 -305 c4 -9 16 -20 27 -26 17 -10 19
-9 14 5 -11 28 10 17 40 -21 77 -99 173 -268 173 -303 0 -12 -14 5 -85 98 -36
48 -94 106 -99 101 -3 -3 8 -20 24 -38 17 -18 30 -38 30 -45 0 -7 10 -28 23
-47 44 -65 38 -64 -28 6 -76 82 -125 150 -125 178 0 16 4 14 29 -12 26 -28 49
-42 38 -23 -3 4 -23 37 -46 75 -22 37 -36 67 -31 67 6 0 13 -7 16 -15z m168
-47 c31 -41 116 -204 116 -222 0 -8 9 -33 20 -57 11 -24 20 -51 20 -59 0 -8
-31 48 -68 125 -38 77 -85 160 -105 183 -21 24 -37 48 -37 53 0 20 31 7 54
-23z m122 -78 c33 -123 28 -135 -16 -47 -22 43 -49 91 -60 107 -11 15 -20 30
-20 32 0 3 17 2 37 -1 37 -6 37 -6 59 -91z m70 54 c-3 -9 -6 -27 -6 -41 0 -35
-6 -27 -14 20 -6 30 -4 37 10 37 11 0 14 -5 10 -16z m1254 -4 c0 -5 -7 -35
-15 -67 -8 -31 -15 -72 -15 -90 0 -17 -5 -56 -12 -85 l-12 -53 -7 60 c-9 79
-11 209 -3 229 7 17 64 23 64 6z m-651 -37 c0 -25 -1 -26 -9 -8 -12 27 -12 35
0 35 6 0 10 -12 9 -27z m105 12 c-4 -8 -8 -15 -10 -15 -2 0 -4 7 -4 15 0 8 4
15 10 15 5 0 7 -7 4 -15z m140 -22 c-9 -21 -21 -51 -27 -68 -6 -16 -29 -61
-53 -100 -23 -38 -56 -97 -74 -130 l-31 -60 5 95 c4 88 36 241 58 283 7 13 22
17 73 17 l65 0 -16 -37z m-337 -5 c-3 -7 -5 -2 -5 12 0 14 2 19 5 13 2 -7 2
-19 0 -25z m86 -77 c2 -10 1 -25 -4 -32 -7 -12 -9 -11 -9 1 0 8 -3 26 -7 39
-4 16 -2 22 4 18 6 -4 13 -15 16 -26z m-523 -33 c0 -16 -3 -19 -11 -11 -6 6
-8 16 -5 22 11 17 16 13 16 -11z m467 -10 c-3 -8 -6 -5 -6 6 -1 11 2 17 5 13
3 -3 4 -12 1 -19z m52 -125 c-1 -53 -6 -49 -11 10 -2 20 0 37 4 37 4 0 8 -21
7 -47z m-640 -127 c-1 -15 -28 46 -28 64 0 8 6 0 14 -19 8 -18 15 -38 14 -45z
m565 -12 c3 -8 2 -12 -4 -9 -6 3 -10 10 -10 16 0 14 7 11 14 -7z"/>
<path d="M6607 10204 c-4 -4 -7 -17 -7 -28 1 -19 1 -20 11 -3 11 19 8 43 -4
31z"/>
<path d="M6756 10125 c-15 -15 -31 -54 -24 -60 2 -2 14 14 26 36 24 41 23 49
-2 24z"/>
<path d="M4750 9964 c-14 -2 -59 -9 -100 -15 -156 -22 -342 -60 -531 -107
-199 -51 -516 -152 -556 -178 -13 -8 -64 -33 -115 -55 -51 -22 -142 -65 -203
-94 -60 -29 -132 -63 -160 -76 -27 -12 -52 -25 -55 -29 -3 -3 -54 -36 -115
-73 -60 -36 -119 -73 -130 -81 -11 -8 -68 -47 -127 -86 -58 -39 -117 -81 -130
-93 -43 -39 -146 -117 -155 -117 -4 0 -33 -23 -63 -51 -30 -28 -95 -85 -144
-128 -49 -42 -103 -92 -120 -111 -17 -19 -69 -75 -116 -124 -160 -167 -190
-201 -190 -213 0 -6 -8 -18 -19 -25 -10 -7 -18 -17 -19 -21 0 -5 -20 -32 -44
-60 -65 -75 -142 -184 -242 -337 -49 -74 -105 -160 -126 -190 -20 -30 -51 -86
-69 -125 -18 -38 -46 -97 -63 -129 -85 -163 -211 -454 -202 -467 3 -5 0 -9 -6
-9 -7 0 -10 -6 -7 -14 3 -8 3 -16 -1 -18 -7 -3 -81 -217 -85 -248 -2 -8 -6
-21 -10 -27 -5 -7 -6 -13 -3 -13 2 0 -9 -48 -25 -107 -39 -144 -86 -377 -109
-544 -17 -118 -20 -196 -20 -609 0 -413 3 -491 20 -609 23 -167 70 -400 110
-546 16 -60 30 -111 30 -112 0 -2 0 -4 1 -5 0 -2 2 -12 4 -23 8 -39 79 -250
87 -253 4 -2 4 -10 1 -18 -3 -8 0 -14 7 -14 6 0 9 -4 6 -9 -9 -13 117 -304
202 -467 17 -32 45 -90 63 -129 18 -38 49 -95 69 -125 21 -30 77 -116 126
-190 99 -152 177 -262 241 -335 23 -27 43 -54 44 -60 1 -5 10 -16 20 -23 11
-7 19 -19 19 -25 0 -12 30 -46 190 -213 47 -49 99 -105 116 -124 17 -19 71
-69 120 -111 49 -43 114 -100 144 -128 30 -28 59 -51 63 -51 9 0 112 -78 155
-117 13 -12 72 -54 130 -93 59 -39 116 -78 127 -86 11 -8 70 -45 130 -81 61
-37 112 -70 115 -73 3 -4 28 -17 55 -29 28 -13 100 -47 160 -76 61 -29 152
-72 203 -94 51 -22 102 -47 115 -55 40 -26 357 -127 556 -178 175 -44 269 -63
531 -110 107 -19 1133 -19 1240 0 262 47 356 66 531 110 199 51 516 152 556
178 13 8 64 33 115 55 51 22 143 65 203 94 61 29 133 63 160 76 28 12 52 25
55 29 3 3 55 36 115 73 61 36 119 73 130 81 11 8 68 47 127 86 58 39 117 81
130 93 43 39 146 117 155 117 4 0 33 23 63 51 30 28 95 85 144 128 49 42 103
92 120 111 17 19 69 75 116 124 160 167 190 201 190 213 0 6 8 18 19 25 10 7
18 17 19 21 0 5 20 32 44 60 65 75 142 184 242 337 49 74 105 160 126 190 20
30 51 87 69 125 18 39 46 97 63 129 85 163 211 454 202 467 -3 5 0 9 6 9 7 0
10 6 7 14 -3 8 -3 16 1 18 7 3 81 217 85 248 2 8 6 21 10 28 5 6 6 12 3 12 -2
0 9 48 25 108 39 143 86 376 109 543 17 118 20 196 20 609 0 413 -3 491 -20
609 -23 166 -70 400 -109 541 -15 58 -29 108 -30 113 0 4 -1 8 -2 10 0 1 -2
11 -4 22 -8 39 -79 250 -87 253 -4 2 -4 10 -1 18 3 8 0 14 -7 14 -6 0 -9 4 -6
9 9 13 -117 304 -202 467 -17 32 -45 91 -63 129 -18 39 -49 95 -69 125 -21 30
-77 116 -126 190 -99 152 -177 262 -241 335 -23 28 -41 53 -40 57 1 4 -8 15
-20 23 -13 9 -23 22 -23 28 0 12 -30 46 -190 213 -47 49 -99 105 -116 124 -17
19 -71 69 -120 111 -49 43 -114 100 -144 128 -30 28 -59 51 -63 51 -9 0 -112
78 -155 117 -13 12 -72 54 -130 93 -59 39 -116 78 -127 86 -11 8 -69 45 -130
81 -60 37 -112 70 -115 73 -3 4 -27 17 -55 29 -27 13 -99 47 -160 76 -60 29
-152 72 -203 94 -51 22 -102 47 -115 55 -65 42 -600 198 -827 241 -325 62
-273 58 -845 61 -291 1 -541 0 -555 -2z m2784 -1010 c14 -20 17 -38 14 -85 -3
-42 0 -63 9 -71 8 -7 13 -35 13 -80 0 -52 4 -70 15 -74 12 -5 15 -33 15 -169
0 -136 -3 -164 -15 -169 -9 -3 -15 -18 -15 -40 0 -19 -6 -36 -12 -38 -7 -3
-11 -18 -10 -36 2 -22 -3 -34 -13 -38 -10 -4 -15 -20 -15 -54 0 -33 -5 -50
-15 -54 -8 -3 -15 -13 -15 -22 0 -23 -29 -54 -50 -54 -10 0 -20 -7 -24 -15 -3
-8 -14 -15 -25 -15 -11 0 -23 -4 -26 -10 -3 -5 -15 -10 -26 -10 -11 0 -22 -7
-25 -15 -4 -8 -14 -15 -24 -15 -11 0 -22 -4 -25 -10 -3 -5 -14 -10 -24 -10
-10 0 -24 -7 -31 -15 -7 -8 -20 -15 -30 -15 -10 0 -20 -7 -24 -15 -3 -8 -14
-15 -25 -15 -11 0 -23 -4 -26 -10 -3 -5 -15 -10 -26 -10 -11 0 -22 -7 -25 -15
-4 -8 -14 -15 -24 -15 -11 0 -22 -4 -25 -10 -3 -5 -14 -10 -24 -10 -10 0 -24
-7 -31 -15 -7 -8 -20 -15 -30 -15 -10 0 -20 -7 -24 -15 -3 -8 -14 -15 -25 -15
-11 0 -23 -4 -26 -10 -3 -5 -15 -10 -26 -10 -11 0 -22 -7 -25 -15 -4 -8 -14
-15 -24 -15 -11 0 -22 -4 -25 -10 -3 -5 -14 -10 -24 -10 -10 0 -24 -7 -31 -15
-7 -8 -20 -15 -30 -15 -10 0 -20 -7 -24 -15 -3 -8 -14 -15 -25 -15 -11 0 -23
-4 -26 -10 -3 -5 -15 -10 -26 -10 -11 0 -22 -7 -25 -15 -4 -8 -14 -15 -24 -15
-11 0 -22 -4 -25 -10 -3 -5 -14 -10 -23 -10 -9 0 -27 -11 -40 -25 -24 -25 -77
-55 -97 -55 -7 0 -18 -7 -25 -15 -7 -8 -25 -15 -39 -15 -16 0 -37 -10 -51 -25
-13 -14 -31 -25 -41 -25 -10 0 -20 -4 -24 -9 -10 -17 -67 -41 -95 -41 -16 0
-30 -7 -34 -15 -3 -8 -14 -15 -25 -15 -11 0 -23 -4 -26 -10 -3 -5 -15 -10 -26
-10 -11 0 -22 -7 -25 -15 -4 -8 -14 -15 -24 -15 -10 0 -23 -7 -30 -15 -7 -8
-21 -15 -31 -15 -10 0 -21 -4 -24 -10 -3 -5 -14 -10 -25 -10 -10 0 -20 -7 -24
-15 -3 -8 -14 -15 -25 -15 -11 0 -23 -4 -26 -10 -3 -5 -15 -10 -26 -10 -11 0
-22 -7 -25 -15 -4 -8 -14 -15 -24 -15 -11 0 -22 -4 -25 -10 -3 -5 -15 -10 -25
-10 -24 0 -36 -18 -21 -33 6 -6 11 -46 11 -94 0 -65 3 -85 15 -89 12 -5 15
-26 15 -104 0 -76 3 -100 16 -111 12 -10 15 -32 13 -118 -2 -73 1 -106 9 -109
8 -2 12 -36 12 -103 0 -79 3 -101 15 -105 12 -5 15 -25 15 -95 0 -87 0 -89 24
-89 13 0 26 7 30 15 3 9 19 15 41 15 19 0 35 5 35 10 0 6 8 10 19 10 10 0 24
7 31 15 7 8 20 15 30 15 10 0 23 7 30 15 7 8 25 15 41 15 15 0 31 5 34 10 3 6
14 10 25 10 10 0 20 7 24 15 3 9 19 15 41 15 19 0 35 5 35 10 0 6 8 10 19 10
10 0 24 7 31 15 7 8 27 15 45 15 20 0 35 6 39 15 3 8 14 15 25 15 11 0 23 5
26 10 3 6 19 10 34 10 16 0 34 7 41 15 7 8 21 15 31 15 10 0 21 5 24 10 3 6
14 10 25 10 10 0 20 7 24 15 3 9 18 15 40 15 21 0 36 6 40 15 3 8 14 15 25 15
11 0 23 5 26 10 3 6 21 10 40 10 20 0 35 6 39 15 3 8 14 15 25 15 11 0 23 5
26 10 3 6 19 10 34 10 16 0 34 7 41 15 7 8 18 15 25 15 16 0 73 29 80 41 4 5
21 9 40 9 21 0 35 6 39 16 6 15 8 15 26 -1 18 -16 20 -31 20 -142 0 -101 3
-125 15 -129 12 -5 15 -28 15 -119 0 -78 4 -115 12 -117 16 -6 17 -119 1 -125
-7 -3 -13 -21 -13 -39 0 -22 -6 -37 -15 -40 -9 -4 -15 -19 -15 -39 0 -19 -4
-37 -10 -40 -5 -3 -10 -13 -10 -22 0 -8 -27 -42 -60 -74 -53 -52 -66 -59 -100
-59 -21 0 -42 -4 -45 -10 -3 -5 -14 -10 -24 -10 -10 0 -24 -7 -31 -15 -7 -8
-20 -15 -30 -15 -10 0 -20 -7 -24 -15 -3 -9 -19 -15 -41 -15 -19 0 -35 -4 -35
-10 0 -5 -8 -10 -19 -10 -10 0 -24 -7 -31 -15 -7 -8 -28 -15 -46 -15 -19 0
-34 -4 -34 -10 0 -5 -8 -10 -19 -10 -10 0 -24 -7 -31 -15 -7 -8 -21 -15 -32
-15 -10 0 -21 -7 -24 -15 -4 -9 -19 -15 -39 -15 -19 0 -37 -4 -40 -10 -3 -5
-14 -10 -25 -10 -10 0 -20 -7 -24 -15 -3 -9 -19 -15 -41 -15 -19 0 -35 -4 -35
-10 0 -5 -8 -10 -19 -10 -10 0 -24 -7 -31 -15 -7 -8 -20 -15 -30 -15 -10 0
-23 -7 -30 -15 -7 -8 -25 -15 -41 -15 -15 0 -31 -4 -34 -10 -3 -5 -15 -10 -26
-10 -11 0 -22 -7 -25 -15 -4 -8 -18 -15 -34 -15 -28 0 -85 -24 -95 -41 -4 -5
-17 -9 -31 -9 -27 0 -33 -24 -9 -34 11 -4 15 -22 15 -75 0 -38 5 -73 10 -76 6
-4 10 -53 10 -114 0 -84 3 -111 15 -121 11 -9 15 -35 15 -104 0 -58 4 -96 12
-104 8 -8 11 -46 9 -117 -2 -88 0 -106 13 -111 13 -5 16 -26 16 -120 0 -93 3
-116 15 -120 12 -5 15 -26 15 -104 0 -55 4 -102 10 -105 6 -4 10 -54 10 -116
0 -88 3 -111 15 -115 12 -5 15 -28 15 -119 0 -80 4 -115 12 -117 9 -3 11 -31
9 -95 -2 -71 1 -93 13 -106 13 -12 16 -39 16 -125 0 -88 3 -111 15 -116 12 -4
15 -26 15 -106 0 -60 4 -100 10 -100 6 0 10 -43 10 -109 0 -84 3 -111 15 -121
12 -10 15 -37 15 -119 0 -66 4 -111 11 -118 7 -7 12 -49 12 -104 0 -60 -4 -94
-12 -97 -6 -2 -11 -25 -11 -52 0 -33 -5 -50 -15 -54 -9 -3 -15 -19 -15 -41 0
-19 -4 -35 -10 -35 -5 0 -10 -11 -10 -24 0 -13 -7 -26 -15 -30 -8 -3 -15 -14
-15 -24 0 -23 -80 -102 -103 -102 -10 0 -20 -7 -23 -15 -4 -10 -21 -15 -54
-15 -33 0 -50 -5 -54 -15 -3 -9 -19 -15 -41 -15 -19 0 -35 -4 -35 -10 0 -5
-22 -10 -50 -10 -38 0 -50 -4 -50 -15 0 -11 -12 -15 -45 -15 -49 0 -85 25 -85
59 0 10 -7 22 -16 25 -13 5 -15 22 -13 103 2 68 -1 98 -9 101 -8 2 -12 35 -12
103 0 79 -3 101 -15 105 -12 5 -15 25 -15 89 0 46 -4 87 -10 90 -6 3 -10 48
-10 99 0 71 -4 97 -15 106 -11 9 -15 34 -15 95 0 63 -4 86 -16 96 -12 10 -15
30 -13 93 2 55 0 81 -9 84 -8 2 -12 34 -12 103 0 79 -3 101 -15 105 -12 5 -15
26 -15 104 0 55 -4 102 -10 105 -5 3 -10 44 -10 91 0 66 -3 86 -15 90 -12 5
-15 26 -15 104 0 73 -3 99 -13 103 -11 4 -13 24 -9 84 3 64 1 81 -12 92 -13
11 -16 33 -16 111 0 78 -3 99 -15 104 -12 4 -15 24 -15 90 0 47 -4 88 -10 91
-6 3 -10 48 -10 99 0 71 -4 97 -15 106 -11 10 -15 36 -15 110 0 69 -4 100 -12
102 -9 3 -12 28 -9 84 2 64 -1 83 -13 93 -13 11 -16 34 -16 106 0 70 -4 96
-15 105 -11 9 -15 34 -15 96 0 49 -4 84 -10 84 -6 0 -10 40 -10 100 0 80 -3
102 -15 106 -12 5 -15 25 -15 94 0 60 -4 90 -12 92 -9 3 -11 33 -9 101 2 81 0
98 -13 103 -13 5 -16 24 -16 105 0 79 -3 101 -15 105 -12 5 -15 25 -15 95 0
53 -4 89 -10 89 -6 0 -10 40 -10 100 0 80 -3 102 -15 106 -12 5 -15 24 -15 88
0 48 -5 87 -11 93 -8 8 -11 45 -10 101 2 70 -1 91 -13 102 -12 9 -16 32 -16
95 0 61 -4 86 -15 95 -11 9 -15 35 -15 106 0 51 -4 96 -10 99 -5 3 -10 44 -10
91 0 66 -3 86 -15 90 -19 8 -19 58 0 74 8 7 15 28 15 46 0 19 5 34 10 34 6 0
10 8 10 19 0 10 7 24 15 31 8 7 15 25 15 40 0 15 7 33 15 40 8 7 15 21 15 31
0 11 5 19 10 19 6 0 10 11 10 24 0 13 7 26 15 30 8 3 15 13 15 23 0 23 59 83
82 83 10 0 18 5 18 10 0 6 11 10 24 10 13 0 26 7 30 15 3 8 14 15 25 15 11 0
23 5 26 10 3 6 15 10 26 10 11 0 22 7 25 15 4 8 14 15 24 15 11 0 22 5 25 10
3 6 15 10 26 10 11 0 22 7 25 15 4 8 16 15 29 15 13 0 25 7 29 15 3 8 14 15
25 15 11 0 23 5 26 10 3 6 26 10 51 10 30 0 46 5 50 15 4 8 14 15 24 15 11 0
22 5 25 10 3 6 14 10 24 10 10 0 24 7 31 15 7 8 20 15 30 15 10 0 20 7 24 15
3 9 19 15 41 15 19 0 35 5 35 10 0 6 8 10 19 10 10 0 24 7 31 15 7 8 18 15 25
15 16 0 73 29 80 41 4 5 14 9 24 9 10 0 24 7 31 15 7 8 21 15 31 15 11 0 19 5
19 10 0 6 15 10 34 10 18 0 39 7 46 15 7 8 21 15 31 15 11 0 19 5 19 10 0 6 8
10 19 10 10 0 24 7 31 15 7 8 20 15 30 15 10 0 20 7 24 15 3 8 14 15 25 15 11
0 23 5 26 10 3 6 15 10 26 10 11 0 22 7 25 15 4 9 19 15 39 15 19 0 37 5 40
10 3 6 15 10 26 10 11 0 22 7 25 15 4 8 14 15 24 15 10 0 23 7 30 15 7 8 21
15 31 15 10 0 21 5 24 10 3 6 14 10 25 10 10 0 20 7 24 15 3 8 14 15 25 15 11
0 23 5 26 10 3 6 19 10 34 10 16 0 34 7 41 15 7 8 21 15 31 15 10 0 20 4 24 9
7 12 64 41 80 41 7 0 18 7 25 15 7 8 21 15 31 15 11 0 19 5 19 10 0 6 16 10
35 10 22 0 38 6 41 15 4 8 14 15 24 15 10 0 23 7 30 15 7 8 21 15 31 15 10 0
21 5 24 10 3 6 14 10 25 10 10 0 20 7 24 15 3 8 14 15 25 15 11 0 23 5 26 10
3 6 15 10 26 10 11 0 22 7 25 15 4 9 19 15 39 15 18 0 38 7 45 15 7 8 21 15
31 15 11 0 19 5 19 10 0 6 9 10 20 10 11 0 23 7 26 15 4 10 20 15 53 15 38 -1
49 -5 65 -26z m-3194 -1166 c7 -13 13 -32 11 -44 -1 -11 5 -27 13 -34 11 -8
16 -30 16 -70 0 -43 4 -59 16 -64 12 -5 15 -21 13 -78 -1 -47 2 -73 9 -76 8
-2 12 -33 12 -87 0 -61 4 -86 15 -95 11 -9 15 -34 15 -96 0 -49 4 -84 10 -84
6 0 10 -35 10 -84 0 -62 4 -87 15 -96 11 -9 15 -34 15 -95 0 -63 4 -86 16 -96
12 -10 15 -30 13 -101 -2 -59 1 -92 9 -100 7 -7 12 -44 12 -95 0 -65 3 -85 15
-89 12 -5 15 -25 15 -95 0 -53 4 -89 10 -89 6 0 10 -35 10 -85 0 -67 3 -87 15
-91 11 -5 15 -23 15 -79 0 -54 4 -76 16 -86 12 -10 15 -30 13 -93 -2 -55 0
-81 9 -84 8 -2 12 -31 12 -87 0 -61 4 -86 15 -95 11 -9 15 -34 15 -96 0 -49 4
-84 10 -84 6 0 10 -32 10 -75 0 -58 4 -77 15 -81 12 -5 15 -24 15 -88 0 -52 5
-87 12 -94 8 -8 12 -35 10 -76 -3 -47 0 -65 12 -75 12 -10 16 -33 16 -98 0
-65 3 -85 15 -89 12 -5 15 -25 15 -95 0 -53 4 -89 10 -89 6 0 10 -30 10 -69 0
-49 4 -72 15 -81 11 -9 15 -34 15 -94 0 -52 5 -87 12 -94 9 -9 12 -35 10 -77
-3 -52 -1 -66 12 -71 13 -5 16 -23 16 -94 0 -69 3 -89 15 -94 12 -4 15 -24 15
-90 0 -47 5 -88 10 -91 6 -3 10 -37 10 -74 0 -49 4 -72 15 -81 11 -9 15 -34
15 -95 0 -54 4 -85 11 -87 8 -3 11 -31 10 -84 -2 -62 2 -84 14 -94 11 -9 15
-31 15 -80 0 -48 4 -71 15 -80 11 -9 15 -34 15 -96 0 -49 4 -84 10 -84 6 0 10
-36 10 -89 0 -70 3 -90 15 -95 11 -4 15 -23 15 -80 0 -50 4 -76 12 -78 9 -3
12 -28 9 -86 -2 -68 0 -83 13 -88 13 -5 16 -23 16 -94 0 -69 3 -89 15 -94 10
-4 15 -20 15 -50 0 -25 5 -48 10 -51 6 -3 10 -26 10 -49 0 -27 6 -48 15 -56
23 -19 17 -32 -58 -109 l-69 -71 -264 0 -264 0 0 99 c0 75 -4 101 -15 111 -11
9 -15 34 -15 96 0 49 -4 84 -10 84 -6 0 -10 35 -10 84 0 62 -4 87 -15 96 -11
9 -15 34 -15 97 0 67 -3 85 -16 90 -13 5 -15 20 -13 84 2 52 -1 83 -9 91 -7 7
-12 43 -12 94 0 60 -4 85 -15 94 -11 9 -15 34 -15 96 0 49 -4 84 -10 84 -6 0
-10 40 -10 100 0 80 -3 102 -15 106 -12 5 -15 25 -15 94 0 71 -3 89 -16 94
-13 5 -15 19 -12 71 2 42 -1 68 -10 77 -8 8 -12 45 -12 109 0 77 -3 98 -15
103 -12 4 -15 24 -15 90 0 47 -4 88 -10 91 -6 3 -10 44 -10 91 0 66 -3 86 -15
90 -12 5 -15 25 -15 89 0 63 -4 86 -16 96 -12 10 -15 30 -13 93 2 55 0 81 -9
84 -8 2 -12 32 -12 92 0 69 -3 89 -15 94 -12 4 -15 24 -15 90 0 47 -4 88 -10
91 -5 3 -10 44 -10 91 0 66 -3 86 -15 90 -12 5 -15 24 -15 88 0 52 -5 87 -12
95 -7 6 -13 31 -13 54 l0 42 -59 3 c-32 2 -64 -2 -69 -7 -6 -6 -41 -11 -78
-11 -47 0 -70 -4 -79 -15 -9 -11 -32 -15 -80 -15 -48 0 -71 -4 -80 -15 -8 -9
-29 -15 -56 -15 -23 0 -46 -4 -49 -10 -3 -5 -15 -10 -26 -10 -11 0 -22 -8 -25
-17 -3 -10 -10 -26 -15 -35 -5 -10 -9 -35 -9 -57 0 -22 -6 -44 -15 -51 -8 -7
-15 -25 -15 -40 0 -15 -6 -33 -14 -39 -9 -8 -12 -24 -9 -49 4 -27 1 -42 -11
-51 -9 -7 -16 -26 -16 -41 0 -15 -7 -33 -15 -40 -9 -8 -15 -29 -15 -56 0 -23
-4 -46 -10 -49 -5 -3 -10 -19 -10 -34 0 -16 -7 -34 -15 -41 -9 -7 -15 -29 -15
-55 0 -24 -6 -48 -14 -54 -7 -6 -11 -21 -9 -34 3 -14 -2 -29 -11 -36 -10 -9
-16 -29 -16 -56 0 -27 -6 -47 -16 -56 -9 -7 -14 -22 -11 -36 2 -13 -2 -28 -9
-34 -8 -6 -14 -30 -14 -54 0 -26 -6 -48 -15 -55 -9 -8 -15 -29 -15 -55 0 -25
-5 -45 -12 -47 -7 -3 -11 -18 -10 -36 2 -22 -3 -34 -13 -38 -10 -4 -15 -20
-15 -54 0 -35 -4 -50 -16 -54 -12 -5 -15 -14 -10 -37 4 -21 1 -31 -9 -35 -10
-4 -15 -21 -15 -54 0 -33 -5 -50 -15 -54 -9 -3 -15 -19 -15 -41 0 -19 -4 -35
-10 -35 -5 0 -10 -23 -10 -50 0 -36 -4 -52 -15 -56 -9 -4 -15 -19 -15 -39 0
-18 -7 -38 -15 -45 -8 -7 -13 -16 -10 -20 3 -5 -22 -36 -55 -69 l-60 -61 -240
0 -240 0 0 74 c0 56 4 75 15 80 10 4 15 19 15 49 0 27 6 49 15 57 9 7 13 21 9
34 -3 14 1 28 10 35 10 9 16 30 16 56 0 27 6 47 16 56 9 7 14 22 11 36 -2 13
2 28 9 34 8 6 14 30 14 54 0 26 6 48 15 55 8 7 15 25 15 41 0 15 5 31 10 34 6
3 10 21 10 40 0 20 6 35 15 39 10 4 15 19 15 49 0 28 6 49 15 57 9 7 14 26 13
43 -1 17 3 32 10 35 7 2 12 22 12 47 0 26 6 47 15 55 8 7 15 28 15 46 0 19 5
34 10 34 6 0 10 20 10 44 0 26 6 48 15 56 8 7 15 27 15 45 0 21 6 35 16 39 11
4 15 17 13 46 -2 22 2 45 9 52 7 7 12 26 12 44 0 19 6 34 15 38 10 4 15 20 15
50 0 25 5 48 10 51 6 3 10 21 10 40 0 20 6 35 15 39 10 4 15 19 15 49 0 28 6
49 16 58 9 7 14 22 11 36 -2 13 2 28 9 34 8 6 14 30 14 54 0 26 6 48 15 55 8
7 15 28 15 46 0 19 5 34 10 34 6 0 10 20 10 44 0 26 6 48 15 56 8 7 15 27 15
45 0 21 6 35 16 39 13 5 15 15 11 46 -3 27 -1 43 9 51 8 6 14 26 14 44 0 20 6
35 15 39 9 3 15 19 15 41 0 19 5 35 10 35 6 0 10 20 10 44 0 26 6 48 15 56 8
7 15 27 15 45 0 21 6 35 16 39 13 5 15 15 11 46 -3 27 -1 43 9 51 8 6 14 26
14 44 0 20 6 35 15 39 10 4 15 20 15 50 0 25 5 48 10 51 6 3 10 21 10 40 0 20
6 35 15 39 10 4 15 19 15 49 0 27 6 49 15 57 9 7 13 21 9 34 -3 14 1 28 10 35
10 9 16 30 16 56 0 26 6 48 15 55 8 7 15 28 15 46 0 19 5 34 10 34 6 0 10 20
10 44 0 26 6 48 15 56 8 7 15 27 15 45 0 19 5 35 12 37 7 3 11 20 10 45 -2 26
3 44 13 53 8 7 15 27 15 45 0 20 6 35 15 39 10 4 15 20 15 50 0 25 5 48 10 51
6 3 10 21 10 40 0 20 6 35 15 39 10 3 15 20 15 48 0 24 7 51 14 61 8 10 12 26
9 36 -2 9 3 23 11 30 10 9 16 30 16 56 0 27 6 47 16 56 9 7 14 22 11 36 -2 13
2 28 9 34 9 7 14 32 14 67 0 59 18 92 50 92 10 0 23 7 30 15 7 8 25 15 41 15
15 0 31 5 34 10 3 6 19 10 34 10 16 0 34 7 41 15 7 8 27 15 45 15 20 0 35 6
39 15 3 9 19 15 41 15 19 0 35 5 35 10 0 6 22 10 49 10 34 0 51 4 55 15 4 10
20 15 50 15 25 0 48 5 51 10 3 6 21 10 40 10 20 0 35 6 39 15 8 21 19 19 36
-7z"/>
<path d="M7444 8296 c-4 -9 -18 -16 -34 -16 -28 0 -85 -24 -95 -41 -4 -5 -14
-9 -24 -9 -10 0 -24 -7 -31 -15 -7 -8 -21 -15 -31 -15 -11 0 -19 -4 -19 -10 0
-5 -15 -10 -34 -10 -18 0 -39 -7 -46 -15 -7 -8 -21 -15 -31 -15 -11 0 -19 -4
-19 -10 0 -5 -8 -10 -19 -10 -10 0 -24 -7 -31 -15 -7 -8 -20 -15 -30 -15 -10
0 -20 -7 -24 -15 -3 -9 -18 -15 -40 -15 -19 0 -38 -4 -41 -10 -3 -5 -14 -10
-25 -10 -10 0 -20 -7 -24 -15 -3 -8 -14 -15 -25 -15 -11 0 -23 -4 -26 -10 -3
-5 -15 -10 -26 -10 -11 0 -22 -7 -25 -15 -4 -8 -14 -15 -24 -15 -10 0 -23 -7
-30 -15 -7 -8 -25 -15 -41 -15 -15 0 -31 -4 -34 -10 -3 -5 -14 -10 -24 -10
-10 0 -24 -7 -31 -15 -7 -8 -21 -15 -31 -15 -11 0 -19 -4 -19 -10 0 -5 -8 -10
-19 -10 -10 0 -24 -7 -31 -15 -7 -8 -27 -15 -45 -15 -20 0 -35 -6 -39 -15 -3
-8 -14 -15 -25 -15 -11 0 -23 -4 -26 -10 -3 -5 -14 -10 -25 -10 -10 0 -20 -7
-24 -15 -3 -8 -14 -15 -25 -15 -11 0 -23 -4 -26 -10 -3 -5 -19 -10 -34 -10
-16 0 -34 -7 -41 -15 -7 -8 -20 -15 -30 -15 -10 0 -23 -7 -30 -15 -7 -8 -21
-15 -31 -15 -11 0 -19 -4 -19 -10 0 -5 -8 -10 -19 -10 -10 0 -24 -7 -31 -15
-7 -8 -25 -15 -41 -15 -15 0 -31 -4 -34 -10 -3 -5 -14 -10 -24 -10 -10 0 -24
-7 -31 -15 -7 -8 -20 -15 -30 -15 -10 0 -20 -7 -24 -15 -3 -8 -14 -15 -25 -15
-11 0 -23 -4 -26 -10 -3 -5 -19 -10 -34 -10 -16 0 -34 -7 -41 -15 -7 -8 -20
-15 -29 -16 -9 0 -29 -9 -46 -20 -32 -20 -39 -24 -67 -33 -16 -5 -18 -19 -18
-99 0 -72 4 -98 15 -107 10 -8 15 -31 15 -71 0 -46 3 -59 15 -59 8 0 15 5 15
10 0 6 9 10 20 10 11 0 23 7 26 15 4 8 16 15 29 15 13 0 25 7 29 15 3 8 14 15
25 15 11 0 23 5 26 10 3 6 14 10 25 10 10 0 20 7 24 15 3 8 14 15 25 15 11 0
23 5 26 10 3 6 15 10 26 10 11 0 22 7 25 15 4 8 14 15 24 15 10 0 23 7 30 15
7 8 21 15 31 15 10 0 21 5 24 10 3 6 14 10 25 10 10 0 20 7 24 15 3 8 14 15
25 15 11 0 23 5 26 10 3 6 15 10 26 10 11 0 22 7 25 15 4 8 14 15 24 15 10 0
23 7 30 15 7 8 21 15 31 15 10 0 21 5 24 10 3 6 14 10 25 10 10 0 20 7 24 15
3 8 14 15 25 15 11 0 23 5 26 10 3 6 15 10 26 10 11 0 22 7 25 15 4 8 14 15
23 15 10 0 28 11 41 25 13 14 31 25 41 25 9 0 22 7 29 15 7 8 21 15 31 15 11
0 19 5 19 10 0 6 8 10 19 10 10 0 24 7 31 15 7 8 20 15 30 15 10 0 20 7 24 15
3 8 14 15 25 15 11 0 23 5 26 10 3 6 15 10 26 10 11 0 22 7 25 15 4 8 17 15
30 15 13 0 24 5 24 10 0 6 8 10 19 10 10 0 24 7 31 15 7 8 20 15 30 15 10 0
20 7 24 15 3 8 14 15 25 15 11 0 23 5 26 10 3 6 15 10 26 10 11 0 22 7 25 15
4 8 14 15 24 15 11 0 22 5 25 10 3 6 14 10 24 10 10 0 24 7 31 15 7 8 21 15
31 15 11 0 19 5 19 10 0 6 8 10 19 10 10 0 24 7 31 15 7 8 21 15 32 15 10 0
21 7 24 15 4 8 14 15 24 15 11 0 22 5 25 10 3 6 14 10 24 10 31 0 61 42 61 88
0 22 5 44 10 47 6 3 10 19 10 34 0 16 7 34 15 41 9 7 15 23 13 34 -4 26 -45
35 -54 12z"/>
<path d="M4877 7574 c-4 -4 -7 -22 -7 -41 0 -18 -4 -33 -10 -33 -5 0 -10 -8
-10 -19 0 -10 -7 -24 -15 -31 -12 -10 -15 -37 -15 -120 0 -83 3 -110 15 -120
11 -9 15 -34 15 -96 0 -49 4 -84 10 -84 6 0 10 -40 10 -100 0 -80 3 -102 15
-106 12 -5 15 -24 15 -88 0 -51 5 -87 12 -94 8 -8 11 -42 9 -101 -2 -69 1 -91
13 -104 12 -12 16 -36 16 -95 0 -59 4 -83 15 -92 11 -9 15 -35 15 -106 0 -51
4 -96 10 -99 6 -3 10 -44 10 -91 0 -66 3 -86 15 -90 12 -5 15 -26 15 -103 0
-60 4 -101 12 -109 7 -7 10 -40 9 -85 -2 -56 2 -78 13 -90 12 -12 16 -38 16
-112 0 -76 3 -97 15 -101 12 -5 15 -25 15 -89 0 -46 5 -87 10 -90 6 -3 10 -50
10 -105 0 -78 3 -99 15 -104 12 -4 15 -24 15 -89 0 -49 5 -88 11 -94 8 -8 11
-45 10 -101 -2 -70 1 -91 13 -102 12 -9 16 -33 16 -97 0 -65 3 -85 15 -89 12
-5 15 -26 15 -104 0 -55 4 -102 10 -105 6 -3 10 -44 10 -90 0 -64 3 -84 15
-89 12 -4 15 -26 15 -105 0 -66 4 -101 11 -103 8 -3 11 -31 10 -84 -2 -62 2
-84 14 -94 11 -9 15 -33 15 -95 0 -63 4 -86 16 -96 12 -10 15 -30 13 -101 -2
-59 1 -92 9 -100 8 -8 12 -46 12 -104 0 -69 4 -95 15 -104 11 -9 15 -34 15
-95 0 -53 4 -85 11 -87 8 -3 11 -36 10 -99 -2 -76 1 -98 14 -109 11 -9 15 -33
15 -95 0 -66 3 -84 16 -89 12 -5 15 -23 13 -103 -1 -65 2 -98 10 -101 7 -2 11
-35 11 -92 0 -69 3 -89 15 -94 12 -4 15 -23 15 -82 0 -56 3 -75 13 -72 7 3 13
28 15 64 2 32 8 61 14 65 14 9 13 152 -1 157 -7 2 -11 39 -11 102 0 74 -4 100
-15 110 -11 9 -15 35 -15 106 0 51 -4 96 -10 99 -6 3 -10 48 -10 99 0 71 -4
97 -15 106 -11 9 -15 34 -15 95 0 63 -4 86 -16 96 -12 10 -15 30 -13 101 2 59
-1 92 -9 100 -8 8 -12 46 -12 104 0 69 -4 95 -15 104 -11 10 -15 36 -15 111 0
59 -4 99 -10 99 -6 0 -10 40 -10 100 0 80 -3 102 -15 106 -12 5 -15 26 -15
104 0 77 -3 100 -16 111 -12 10 -15 30 -13 101 2 59 -1 92 -9 100 -7 7 -12 43
-12 94 0 64 -3 83 -15 88 -12 4 -15 26 -15 106 0 60 -4 100 -10 100 -6 0 -10
40 -10 100 0 80 -3 102 -15 106 -12 5 -15 26 -15 103 0 62 -4 101 -12 109 -8
8 -11 41 -9 100 2 71 -1 91 -13 101 -13 11 -16 34 -16 111 0 78 -3 99 -15 104
-12 4 -15 24 -15 90 0 47 -4 88 -10 91 -6 3 -10 48 -10 99 0 71 -4 97 -15 106
-11 10 -15 36 -15 110 0 68 -4 100 -12 102 -9 3 -11 31 -9 95 2 71 -1 93 -13
106 -12 12 -16 37 -16 112 0 76 -3 97 -15 101 -12 5 -15 26 -15 104 0 55 -4
102 -10 105 -5 3 -10 44 -10 90 0 64 -3 84 -15 89 -12 4 -15 26 -15 105 0 65
-4 101 -11 103 -8 3 -11 36 -10 101 2 80 -1 98 -13 103 -14 5 -16 31 -16 168
0 115 -4 166 -12 174 -7 7 -13 20 -13 29 0 18 -17 28 -28 17z"/>
<path d="M6927 5856 c-4 -9 -15 -16 -25 -16 -11 0 -25 -7 -32 -15 -7 -8 -25
-15 -41 -15 -15 0 -31 -4 -34 -10 -3 -5 -21 -10 -40 -10 -20 0 -35 -6 -39 -15
-3 -9 -19 -15 -41 -15 -19 0 -35 -4 -35 -10 0 -5 -8 -10 -19 -10 -10 0 -24 -7
-31 -15 -7 -8 -27 -15 -45 -15 -20 0 -35 -6 -39 -15 -3 -9 -19 -15 -41 -15
-19 0 -35 -4 -35 -10 0 -5 -15 -10 -34 -10 -18 0 -39 -7 -46 -15 -7 -8 -21
-15 -31 -15 -11 0 -19 -4 -19 -10 0 -5 -16 -10 -35 -10 -22 0 -38 -6 -41 -15
-4 -9 -19 -15 -39 -15 -19 0 -37 -4 -40 -10 -3 -5 -19 -10 -34 -10 -16 0 -34
-7 -41 -15 -7 -8 -20 -15 -30 -15 -10 0 -20 -7 -24 -15 -3 -9 -18 -15 -40 -15
-19 0 -38 -4 -41 -10 -3 -5 -19 -10 -34 -10 -16 0 -34 -7 -41 -15 -7 -8 -25
-15 -39 -15 -28 0 -71 -36 -71 -58 0 -7 7 -15 15 -18 11 -5 15 -24 15 -79 0
-76 9 -96 30 -70 7 8 21 15 31 15 11 0 19 5 19 10 0 6 15 10 34 10 18 0 39 7
46 15 7 8 20 15 30 15 10 0 20 7 24 15 3 8 14 15 25 15 11 0 23 5 26 10 3 6
19 10 34 10 16 0 34 7 41 15 7 8 21 15 31 15 10 0 21 5 24 10 3 6 19 10 34 10
16 0 34 7 41 15 7 8 20 15 30 15 10 0 20 7 24 15 3 8 14 15 25 15 11 0 23 5
26 10 3 6 21 10 40 10 20 0 35 6 39 15 3 8 14 15 25 15 11 0 23 5 26 10 3 6
15 10 26 10 11 0 22 7 25 15 4 9 19 15 40 15 22 0 37 6 40 15 4 8 14 15 24 15
11 0 22 5 25 10 3 6 21 10 40 10 20 0 35 6 39 15 3 8 14 15 25 15 11 0 23 5
26 10 3 6 15 10 26 10 11 0 22 7 25 15 4 9 19 15 39 15 43 0 65 26 65 77 0 24
6 46 15 53 9 7 15 23 13 34 -4 25 -43 34 -51 12z"/>
<path d="M6020 2065 c-7 -8 -27 -15 -45 -15 -20 0 -35 -6 -39 -15 -3 -8 -14
-15 -25 -15 -11 0 -23 -4 -26 -10 -3 -5 -19 -10 -34 -10 -16 0 -34 -7 -41 -15
-7 -8 -20 -15 -29 -16 -9 0 -29 -9 -46 -20 -31 -19 -43 -25 -70 -34 -10 -3
-15 -18 -15 -48 0 -27 -6 -49 -15 -57 -9 -7 -13 -21 -9 -34 3 -14 -1 -28 -10
-35 -21 -18 -22 -81 -1 -81 8 0 15 5 15 10 0 6 16 10 35 10 22 0 38 6 41 15 4
11 21 15 55 15 27 0 49 5 49 10 0 6 8 10 19 10 10 0 24 7 31 15 7 8 21 15 31
15 10 0 21 4 24 10 3 5 21 17 40 26 33 15 35 19 35 65 0 35 4 51 15 55 9 4 15
19 15 36 0 16 7 36 15 44 16 17 20 69 6 78 -5 3 -14 -1 -21 -9z"/>
<path d="M3747 7532 c-10 -10 -17 -26 -17 -34 0 -9 -7 -21 -15 -28 -8 -7 -13
-16 -10 -20 3 -5 -2 -15 -10 -23 -8 -9 -15 -29 -15 -45 0 -17 -6 -32 -15 -36
-11 -4 -15 -21 -15 -65 0 -33 -4 -63 -10 -66 -5 -3 -10 -26 -10 -51 0 -30 -5
-46 -15 -50 -10 -4 -15 -21 -15 -54 0 -27 -5 -50 -11 -52 -6 -2 -12 -19 -13
-38 -1 -18 -8 -36 -14 -38 -7 -2 -12 -18 -12 -37 0 -18 -7 -38 -15 -45 -9 -8
-15 -30 -15 -56 0 -24 -4 -44 -10 -44 -5 0 -10 -15 -10 -34 0 -18 -7 -39 -15
-46 -8 -7 -15 -25 -15 -40 0 -15 -6 -33 -14 -39 -9 -8 -12 -24 -9 -49 4 -27 1
-42 -11 -51 -9 -7 -16 -26 -16 -41 0 -15 -7 -33 -15 -40 -9 -8 -15 -29 -15
-56 0 -23 -4 -46 -10 -49 -5 -3 -10 -19 -10 -34 0 -16 -7 -34 -15 -41 -8 -7
-15 -27 -15 -45 0 -19 -5 -35 -12 -37 -7 -3 -11 -20 -10 -45 2 -26 -3 -44 -13
-53 -8 -7 -15 -27 -15 -45 0 -20 -6 -35 -15 -39 -10 -4 -15 -20 -15 -50 0 -25
-4 -48 -10 -51 -5 -3 -10 -19 -10 -34 0 -16 -7 -34 -15 -41 -9 -8 -15 -29 -15
-56 0 -23 -4 -46 -10 -49 -5 -3 -10 -19 -10 -34 0 -16 -7 -34 -15 -41 -9 -7
-15 -29 -15 -55 0 -26 -6 -48 -15 -55 -8 -7 -15 -25 -15 -41 0 -15 -4 -31 -10
-34 -5 -3 -10 -21 -10 -40 0 -20 -6 -35 -15 -39 -10 -4 -15 -19 -15 -49 0 -24
-4 -47 -10 -53 -5 -5 -11 -29 -12 -52 -1 -23 -7 -47 -15 -53 -7 -6 -13 -24
-13 -39 0 -15 -7 -33 -15 -40 -9 -8 -15 -29 -15 -56 0 -23 -4 -46 -10 -49 -5
-3 -10 -19 -10 -34 0 -16 -7 -34 -15 -41 -9 -8 -15 -29 -15 -56 0 -23 -4 -46
-10 -49 -5 -3 -10 -19 -10 -34 0 -16 -7 -34 -15 -41 -9 -7 -15 -29 -15 -55 0
-26 -6 -48 -15 -55 -8 -7 -15 -25 -15 -41 0 -15 -4 -31 -10 -34 -5 -3 -10 -26
-10 -51 0 -30 -5 -46 -15 -50 -9 -4 -15 -19 -15 -39 0 -19 -4 -37 -10 -40 -5
-3 -10 -26 -10 -51 0 -30 -5 -46 -15 -50 -9 -4 -15 -19 -15 -39 0 -18 -7 -38
-15 -45 -9 -8 -15 -30 -15 -56 0 -24 -4 -44 -10 -44 -5 0 -10 -18 -10 -40 0
-29 4 -40 15 -40 10 0 15 10 15 34 0 21 6 36 15 40 11 4 15 20 15 56 0 27 5
50 10 50 6 0 10 16 10 35 0 22 6 38 15 41 9 4 15 19 15 35 0 17 7 41 16 54 11
17 14 36 10 55 -4 22 -1 32 9 36 9 4 15 19 15 39 0 18 7 38 15 45 9 8 15 30
15 56 0 24 5 44 10 44 6 0 10 15 10 34 0 18 7 39 15 46 8 7 15 24 15 39 0 15
5 32 11 38 6 6 11 29 11 51 0 24 5 46 14 53 8 6 14 24 14 39 0 15 7 33 15 40
8 7 15 25 15 41 0 15 5 31 10 34 6 3 10 26 10 49 0 27 6 48 15 56 8 7 15 28
15 46 0 19 5 34 10 34 6 0 10 20 10 44 0 26 6 48 15 56 8 7 15 27 15 45 0 20
6 35 15 39 10 4 15 16 13 38 -1 18 3 33 10 36 7 2 12 22 12 47 0 26 6 47 15
55 8 7 15 28 15 46 0 19 5 34 10 34 6 0 10 16 10 35 0 22 6 38 15 41 10 4 15
21 15 54 0 27 5 50 11 52 6 2 12 19 13 38 1 18 8 36 14 38 7 2 12 24 12 52 0
33 5 50 15 54 9 3 15 19 15 41 0 19 5 35 10 35 6 0 10 16 10 35 0 22 6 38 15
41 10 4 15 21 15 54 0 29 5 50 12 52 7 3 11 18 10 36 -2 22 3 34 13 38 9 4 15
19 15 39 0 18 7 38 15 45 9 8 15 30 15 56 0 24 5 44 10 44 6 0 10 15 10 34 0
18 7 39 15 46 9 8 15 29 15 55 0 25 5 45 12 47 7 3 11 18 10 35 -1 17 4 36 13
43 8 7 15 25 15 40 0 15 7 33 15 40 9 8 15 29 15 56 0 23 5 46 10 49 6 3 10
19 10 34 0 16 7 34 15 41 9 8 15 29 15 56 0 23 5 46 10 49 6 3 10 19 10 34 0
16 7 34 15 41 8 7 15 27 15 45 0 21 6 35 16 39 11 4 15 17 13 46 -2 22 2 45 9
52 7 7 12 26 12 44 0 19 6 34 15 38 19 7 21 76 2 76 -8 0 -21 -8 -30 -18z"/>
<path d="M3982 6807 l-21 -22 23 -22 c28 -27 36 -21 36 29 0 44 -8 47 -38 15z"/>
<path d="M3940 6676 c0 -26 -6 -48 -15 -56 -10 -8 -15 -31 -15 -71 0 -33 -4
-59 -10 -59 -5 0 -10 -22 -10 -49 0 -34 -4 -51 -15 -55 -10 -4 -15 -19 -15
-49 0 -29 -6 -49 -16 -58 -12 -9 -15 -24 -11 -51 3 -25 0 -41 -9 -49 -8 -6
-14 -30 -14 -54 0 -26 -6 -48 -15 -55 -9 -8 -15 -30 -15 -56 0 -24 -4 -44 -10
-44 -5 0 -10 -22 -10 -49 0 -34 -4 -51 -15 -55 -10 -4 -15 -19 -15 -49 0 -29
-6 -49 -16 -58 -12 -9 -15 -24 -11 -51 3 -25 0 -41 -9 -49 -8 -6 -14 -24 -14
-39 0 -15 -7 -33 -16 -40 -9 -8 -14 -25 -12 -44 3 -30 5 -31 52 -34 32 -2 52
1 57 10 7 10 11 10 21 0 14 -14 124 -16 133 -2 3 6 26 10 49 10 26 0 48 6 56
14 6 8 26 16 43 18 32 3 32 4 35 62 2 46 -1 62 -12 68 -13 7 -16 29 -16 108 0
60 -4 100 -10 100 -6 0 -10 35 -10 84 0 62 -4 87 -15 96 -11 10 -15 36 -15
110 0 68 -4 100 -12 102 -9 3 -11 33 -9 101 2 81 0 98 -13 103 -13 5 -16 25
-16 120 0 95 -3 114 -15 114 -11 0 -15 -12 -15 -44z"/>
<path d="M4020 6704 c0 -9 5 -14 12 -12 18 6 21 28 4 28 -9 0 -16 -7 -16 -16z"/>
<path d="M4047 6563 c-4 -3 -7 -28 -7 -55 0 -36 4 -48 15 -48 8 0 15 3 16 8 9
86 0 120 -24 95z"/>
<path d="M4070 6345 c0 -51 3 -65 15 -65 12 0 15 14 15 65 0 51 -3 65 -15 65
-12 0 -15 -14 -15 -65z"/>
<path d="M4097 6254 c-4 -4 -7 -40 -7 -80 0 -55 4 -73 15 -78 12 -4 15 -24 15
-89 0 -47 5 -88 11 -94 6 -6 12 -48 14 -93 1 -45 7 -85 13 -89 6 -4 12 -44 14
-91 3 -83 4 -85 28 -85 21 0 26 5 28 34 2 23 -2 37 -12 43 -12 7 -16 26 -16
83 0 43 -4 75 -10 75 -6 0 -10 30 -10 69 0 49 -4 72 -15 81 -11 9 -15 33 -15
86 0 41 -4 74 -10 74 -5 0 -10 35 -12 77 -3 70 -13 95 -31 77z"/>
<path d="M4218 5199 c-21 -22 -23 -50 -6 -67 7 -7 10 -40 9 -85 -2 -56 2 -78
13 -90 12 -11 16 -36 16 -95 0 -60 4 -83 15 -92 12 -10 16 -32 14 -94 -1 -53
2 -81 10 -84 7 -2 11 -33 11 -87 0 -61 4 -86 15 -95 11 -9 15 -34 15 -95 0
-54 4 -85 11 -87 8 -3 11 -31 10 -84 -2 -62 2 -84 14 -94 11 -9 15 -33 15 -95
0 -62 4 -86 15 -95 12 -10 16 -32 14 -94 -1 -53 2 -81 10 -84 7 -2 11 -33 11
-87 0 -61 4 -86 15 -95 11 -9 15 -34 15 -96 0 -49 4 -84 10 -84 6 0 10 -35 10
-84 0 -62 4 -87 15 -96 11 -9 15 -34 15 -95 0 -63 4 -86 16 -96 12 -10 15 -30
13 -93 -2 -55 0 -81 9 -84 8 -2 12 -31 12 -87 0 -61 4 -86 15 -95 11 -9 15
-34 15 -96 0 -49 4 -84 10 -84 6 0 10 -40 10 -100 0 -80 3 -102 15 -106 11 -5
15 -23 15 -79 0 -54 4 -76 16 -86 12 -10 15 -29 13 -86 -2 -47 1 -77 9 -85 7
-7 12 -37 12 -68 0 -31 3 -60 7 -63 10 -10 53 34 53 54 0 9 6 19 13 22 10 3
10 9 0 26 -8 12 -13 54 -13 100 0 61 -3 80 -15 85 -12 4 -15 24 -15 89 0 49
-5 88 -11 94 -8 8 -11 42 -10 93 2 65 -1 81 -13 86 -13 5 -16 25 -16 105 0 81
-3 101 -16 106 -12 4 -15 21 -13 85 1 49 -2 83 -10 91 -6 6 -11 45 -11 94 0
65 -3 85 -15 89 -12 5 -15 26 -15 103 0 61 -4 101 -12 109 -7 7 -10 37 -9 75
2 47 -2 67 -13 76 -12 11 -16 34 -16 106 0 71 -4 95 -15 105 -12 10 -16 32
-14 94 1 53 -2 81 -10 84 -7 2 -11 34 -11 92 0 69 -3 89 -15 94 -12 4 -15 26
-15 106 0 60 -4 100 -10 100 -6 0 -10 35 -10 84 0 62 -4 87 -15 96 -11 9 -15
34 -15 95 0 66 -3 84 -16 89 -13 5 -15 20 -13 86 2 53 -1 84 -9 92 -8 8 -12
46 -12 109 0 77 -3 98 -15 103 -12 4 -15 24 -15 89 0 46 -4 87 -10 93 -5 5
-10 47 -12 94 l-3 85 -35 2 c-24 1 -41 -4 -52 -18z"/>
<path d="M2690 3907 c0 -20 -5 -37 -12 -39 -7 -3 -11 -22 -10 -50 2 -34 -1
-49 -13 -56 -11 -6 -15 -19 -13 -42 4 -47 28 -52 28 -6 0 23 5 39 15 42 10 4
15 20 15 51 0 27 6 51 16 60 20 20 14 67 -8 71 -14 3 -18 -4 -18 -31z"/>
<path d="M2617 3654 c-4 -4 -7 -22 -7 -41 0 -18 -4 -33 -10 -33 -5 0 -10 -18
-10 -40 0 -29 4 -40 15 -40 10 0 15 10 15 34 0 18 7 39 16 46 9 8 14 25 12 43
-3 30 -18 44 -31 31z"/>
<path d="M2567 3473 c-11 -10 -8 -41 4 -49 17 -10 32 12 24 35 -6 21 -16 26
-28 14z"/>
<path d="M2540 3385 c0 -8 7 -15 15 -15 8 0 15 7 15 15 0 8 -7 15 -15 15 -8 0
-15 -7 -15 -15z"/>
<path d="M2597 3292 c-31 -32 -57 -63 -57 -70 0 -9 41 -12 163 -12 159 0 162
1 185 25 13 13 21 29 18 34 -3 5 8 21 25 35 16 14 27 30 24 36 -4 6 -65 10
-153 10 l-148 0 -57 -58z"/>
<path d="M4996 1763 c-157 -3 -170 -5 -187 -25 -10 -11 -17 -24 -14 -28 2 -4
-9 -20 -25 -35 -16 -15 -27 -32 -24 -37 3 -4 83 -8 177 -8 l172 1 33 29 c17
16 32 37 32 46 0 9 7 22 17 29 15 11 11 38 -5 33 -4 -1 -83 -4 -176 -5z"/>
<path d="M4261 10440 c-5 -16 -6 -30 -1 -30 4 0 13 14 19 30 5 17 6 30 1 30
-4 0 -13 -13 -19 -30z"/>
<path d="M3799 10355 c-7 -41 10 -173 24 -182 7 -4 8 11 2 48 -5 30 -8 73 -7
97 1 23 -3 42 -8 42 -6 0 -10 -2 -11 -5z"/>
<path d="M7390 10112 c0 -8 -5 -31 -12 -49 -9 -26 -9 -46 1 -95 7 -35 17 -67
23 -73 7 -7 9 -1 4 20 -8 41 -17 134 -10 113 3 -10 10 -18 16 -18 7 0 8 16 4
45 -5 29 -4 45 3 45 6 0 11 -8 11 -19 0 -20 27 -48 37 -38 13 13 -19 63 -47
74 -25 10 -30 9 -30 -5z"/>
<path d="M7480 10081 c0 -18 12 -41 21 -41 15 0 10 37 -6 44 -8 3 -15 1 -15
-3z"/>
<path d="M7520 9966 c0 -8 5 -18 10 -21 6 -3 10 3 10 14 0 12 -4 21 -10 21 -5
0 -10 -6 -10 -14z"/>
<path d="M2817 9954 c-8 -8 2 -55 14 -68 5 -6 9 0 8 15 -1 32 -13 62 -22 53z"/>
<path d="M2960 9941 c0 -5 5 -13 10 -16 6 -3 10 -2 10 4 0 5 -4 13 -10 16 -5
3 -10 2 -10 -4z"/>
<path d="M7721 9926 c-9 -10 -9 -20 0 -40 17 -37 30 -32 26 9 -4 42 -10 50
-26 31z"/>
<path d="M2776 9890 c4 -25 11 -49 17 -55 6 -7 7 5 3 35 -4 25 -12 50 -17 55
-7 7 -8 -5 -3 -35z"/>
<path d="M2981 9894 c0 -11 3 -14 6 -6 3 7 2 16 -1 19 -3 4 -6 -2 -5 -13z"/>
<path d="M7884 9866 c-8 -21 -4 -25 19 -17 17 6 17 8 3 20 -13 11 -17 11 -22
-3z"/>
<path d="M2752 9790 c0 -14 2 -19 5 -12 2 6 2 18 0 25 -3 6 -5 1 -5 -13z"/>
<path d="M2795 9778 c10 -31 25 -47 25 -26 0 24 -11 48 -22 48 -5 0 -6 -10 -3
-22z"/>
<path d="M8000 9741 c0 -32 22 -81 36 -81 18 0 18 -1 -6 54 -23 50 -30 57 -30
27z"/>
<path d="M2811 9704 c0 -11 3 -14 6 -6 3 7 2 16 -1 19 -3 4 -6 -2 -5 -13z"/>
<path d="M8110 9693 c0 -32 10 -53 26 -53 20 0 17 21 -6 50 -19 24 -20 24 -20
3z"/>
<path d="M2822 9660 c0 -14 2 -19 5 -12 2 6 2 18 0 25 -3 6 -5 1 -5 -13z"/>
<path d="M8220 9551 c0 -5 5 -13 10 -16 6 -3 10 -2 10 4 0 5 -4 13 -10 16 -5
3 -10 2 -10 -4z"/>
<path d="M8190 9511 c0 -6 4 -13 10 -16 6 -3 7 1 4 9 -7 18 -14 21 -14 7z"/>
<path d="M9318 8609 c-16 -21 -28 -46 -28 -54 0 -26 24 -16 49 21 14 20 30 33
38 30 10 -4 9 1 -3 19 -9 14 -19 25 -23 25 -3 -1 -18 -19 -33 -41z"/>
<path d="M9495 8380 c-15 -29 -37 -67 -48 -82 -20 -27 -19 -46 3 -33 16 10 82
145 77 158 -2 7 -16 -13 -32 -43z"/>
<path d="M9382 8388 c-5 -7 -17 -29 -26 -48 l-17 -35 36 39 c19 22 35 43 35
48 0 12 -16 10 -28 -4z"/>
<path d="M9301 8354 c-31 -39 -28 -64 3 -35 25 23 41 61 26 61 -5 0 -18 -12
-29 -26z"/>
<path d="M9357 8264 c-4 -4 -7 -14 -7 -23 0 -11 3 -12 11 -4 6 6 10 16 7 23
-2 6 -7 8 -11 4z"/>
<path d="M9387 8203 c-4 -3 -7 -15 -7 -26 0 -16 3 -17 15 -7 8 7 15 19 15 26
0 15 -12 19 -23 7z"/>
<path d="M9538 8165 c-35 -56 -48 -82 -48 -96 0 -21 25 7 54 61 34 62 29 90
-6 35z"/>
<path d="M250 6879 c0 -17 66 -86 75 -77 3 3 -13 25 -34 49 -25 27 -40 38 -41
28z"/>
<path d="M230 6825 c0 -3 19 -25 43 -49 23 -23 62 -66 86 -95 47 -57 70 -63
27 -6 -67 87 -156 173 -156 150z"/>
<path d="M390 6595 c0 -18 19 -40 26 -32 4 4 0 15 -9 24 -9 10 -17 13 -17 8z"/>
<path d="M437 6568 c4 -22 3 -29 -5 -24 -17 10 -15 5 18 -61 16 -32 29 -51 29
-43 0 8 -6 26 -14 40 -21 37 -18 56 5 29 27 -33 25 -18 -5 41 -29 58 -37 63
-28 18z"/>
<path d="M106 6325 c-7 -26 -2 -34 69 -113 58 -65 55 -32 -5 43 -28 35 -49 69
-46 74 4 5 2 12 -3 15 -5 3 -12 -5 -15 -19z"/>
<path d="M190 6328 c0 -9 5 -20 11 -23 17 -11 18 -2 3 19 -12 17 -14 17 -14 4z"/>
<path d="M246 6187 c3 -10 9 -15 12 -12 3 3 0 11 -7 18 -10 9 -11 8 -5 -6z"/>
<path d="M284 6075 c10 -39 36 -94 48 -101 7 -4 7 0 0 12 -5 11 -12 35 -16 55
-4 21 -14 43 -23 50 -15 13 -16 11 -9 -16z"/>
<path d="M10174 5869 c-3 -6 -1 -16 5 -22 8 -8 11 -5 11 11 0 24 -5 28 -16 11z"/>
<path d="M10182 5690 c0 -14 2 -19 5 -12 2 6 2 18 0 25 -3 6 -5 1 -5 -13z"/>
<path d="M10300 5660 c0 -5 5 -10 11 -10 5 0 7 5 4 10 -3 6 -8 10 -11 10 -2 0
-4 -4 -4 -10z"/>
<path d="M10206 5487 c3 -10 9 -15 12 -12 3 3 0 11 -7 18 -10 9 -11 8 -5 -6z"/>
<path d="M10260 5490 c0 -5 5 -10 11 -10 5 0 7 5 4 10 -3 6 -8 10 -11 10 -2 0
-4 -4 -4 -10z"/>
<path d="M10420 5254 c0 -12 7 -27 15 -34 19 -16 19 -3 0 30 -13 24 -14 24
-15 4z"/>
<path d="M10241 5234 c0 -11 3 -14 6 -6 3 7 2 16 -1 19 -3 4 -6 -2 -5 -13z"/>
<path d="M10390 5156 c0 -8 5 -18 10 -21 6 -3 10 1 10 9 0 8 -4 18 -10 21 -5
3 -10 -1 -10 -9z"/>
<path d="M10206 5135 c4 -8 8 -15 10 -15 2 0 4 7 4 15 0 8 -4 15 -10 15 -5 0
-7 -7 -4 -15z"/>
<path d="M10250 5143 c0 -6 5 -15 10 -18 6 -3 10 -15 10 -25 0 -11 9 -34 21
-52 l21 -33 -6 40 c-3 22 -6 48 -6 58 0 11 -6 17 -12 14 -7 -2 -18 3 -25 12
-8 10 -12 11 -13 4z"/>
<path d="M10221 5107 c-2 -16 31 -107 40 -113 5 -3 9 -1 9 4 0 12 -49 119 -49
109z"/>
<path d="M10330 5084 c0 -10 5 -26 10 -34 8 -11 9 -7 4 15 -8 37 -14 45 -14
19z"/>
<path d="M10390 5063 c0 -5 7 -18 15 -29 12 -16 14 -16 15 -3 0 9 -7 22 -15
29 -8 7 -15 8 -15 3z"/>
<path d="M10446 5047 c3 -10 9 -15 12 -12 3 3 0 11 -7 18 -10 9 -11 8 -5 -6z"/>
<path d="M10210 4983 c1 -10 12 -38 26 -63 14 -25 22 -34 18 -20 -3 14 -10 29
-15 35 -5 5 -9 19 -9 31 0 13 -4 26 -10 29 -5 3 -10 -2 -10 -12z"/>
<path d="M10527 4985 c-4 -9 -1 -18 9 -22 22 -8 30 5 12 23 -14 14 -16 14 -21
-1z"/>
<path d="M10321 4974 c0 -11 3 -14 6 -6 3 7 2 16 -1 19 -3 4 -6 -2 -5 -13z"/>
<path d="M10331 4934 c0 -11 3 -14 6 -6 3 7 2 16 -1 19 -3 4 -6 -2 -5 -13z"/>
<path d="M10385 4918 c4 -18 12 -37 18 -43 7 -7 8 -4 3 8 -3 10 -6 30 -6 43 0
13 -5 24 -11 24 -7 0 -8 -12 -4 -32z"/>
<path d="M10467 4943 c-4 -6 -1 -27 7 -45 46 -108 61 -139 64 -130 2 6 -5 26
-14 44 -10 18 -25 58 -34 88 -9 31 -19 49 -23 43z"/>
<path d="M10280 4928 c0 -8 21 -54 46 -103 69 -134 72 -140 94 -160 31 -28 26
5 -4 34 -23 21 -116 199 -116 220 0 6 -4 13 -10 16 -5 3 -10 0 -10 -7z"/>
<path d="M10537 4903 c-3 -5 -1 -17 4 -28 7 -17 8 -17 8 8 1 27 -4 34 -12 20z"/>
<path d="M10260 4865 c0 -13 42 -87 46 -82 3 2 -5 23 -17 46 -19 38 -29 49
-29 36z"/>
<path d="M10411 4847 c-1 -24 76 -187 88 -187 5 0 -5 30 -23 68 -18 37 -40 83
-49 102 -9 21 -16 28 -16 17z"/>
<path d="M10480 4795 c0 -13 43 -85 51 -85 15 0 11 13 -16 53 -24 34 -35 45
-35 32z"/>
<path d="M10163 4745 c-3 -9 -3 -18 -1 -21 3 -3 8 4 11 16 6 23 -1 27 -10 5z"/>
<path d="M10120 4473 c0 -12 5 -25 10 -28 13 -8 13 15 0 35 -8 12 -10 11 -10
-7z"/>
<path d="M10280 4483 c0 -5 5 -15 10 -23 8 -12 10 -11 10 8 0 12 -4 22 -10 22
-5 0 -10 -3 -10 -7z"/>
<path d="M10400 4469 c0 -8 7 -24 16 -35 14 -18 15 -18 8 6 -8 31 -24 50 -24
29z"/>
<path d="M10470 4445 c0 -11 5 -27 10 -35 8 -12 10 -12 10 5 0 11 -5 27 -10
35 -8 12 -10 12 -10 -5z"/>
<path d="M10302 4430 c0 -8 4 -26 8 -40 6 -20 8 -21 8 -5 0 11 -3 29 -8 40 -5
12 -8 14 -8 5z"/>
<path d="M10085 4140 c-3 -5 -1 -18 4 -27 9 -16 10 -14 11 10 0 28 -5 34 -15
17z"/>
<path d="M10086 4038 c4 -29 11 -60 16 -68 8 -12 8 -11 4 3 -3 10 -6 41 -6 68
0 27 -5 49 -10 49 -7 0 -8 -19 -4 -52z"/>
<path d="M10091 3554 c0 -11 3 -14 6 -6 3 7 2 16 -1 19 -3 4 -6 -2 -5 -13z"/>
<path d="M9860 3538 c0 -7 5 -20 10 -28 8 -12 10 -9 10 13 0 15 -4 27 -10 27
-5 0 -10 -6 -10 -12z"/>
<path d="M9980 3470 c0 -16 4 -30 8 -30 5 0 7 14 4 30 -2 17 -6 30 -8 30 -2 0
-4 -13 -4 -30z"/>
<path d="M9832 2840 c0 -14 2 -19 5 -12 2 6 2 18 0 25 -3 6 -5 1 -5 -13z"/>
<path d="M9850 2724 c0 -8 5 -12 10 -9 6 3 10 10 10 16 0 5 -4 9 -10 9 -5 0
-10 -7 -10 -16z"/>
<path d="M820 2645 c-8 -9 -8 -15 -2 -15 12 0 26 19 19 26 -2 2 -10 -2 -17
-11z"/>
<path d="M860 2614 c0 -17 22 -14 28 4 2 7 -3 12 -12 12 -9 0 -16 -7 -16 -16z"/>
<path d="M930 2611 c-13 -25 -13 -34 0 -26 16 10 32 45 21 45 -6 0 -15 -9 -21
-19z"/>
<path d="M891 2552 c-7 -13 -11 -26 -8 -28 8 -8 29 25 25 38 -3 8 -9 4 -17
-10z"/>
<path d="M790 2512 c0 -5 7 -16 16 -23 14 -12 16 -11 13 5 -4 20 -29 35 -29
18z"/>
<path d="M846 2481 c-12 -13 -16 -27 -11 -38 6 -16 8 -14 21 10 20 37 14 54
-10 28z"/>
<path d="M9195 2070 c-4 -6 9 -10 32 -9 30 0 34 2 18 9 -27 12 -43 12 -50 0z"/>
<path d="M9285 2070 c-4 -6 22 -10 72 -9 54 1 70 3 53 9 -36 12 -118 12 -125
0z"/>
<path d="M9448 2063 c7 -3 16 -2 19 1 4 3 -2 6 -13 5 -11 0 -14 -3 -6 -6z"/>
<path d="M1740 1854 c0 -8 5 -12 10 -9 6 3 10 10 10 16 0 5 -4 9 -10 9 -5 0
-10 -7 -10 -16z"/>
<path d="M1755 1779 c-4 -6 -5 -12 -2 -15 2 -3 7 2 10 11 7 17 1 20 -8 4z"/>
<path d="M1721 1722 c-17 -31 -13 -40 5 -14 9 13 14 26 11 29 -3 2 -10 -4 -16
-15z"/>
<path d="M9008 1582 c-118 -88 -142 -112 -110 -112 22 0 183 129 212 169 12
17 20 31 18 30 -2 0 -56 -40 -120 -87z"/>
<path d="M1661 1624 c-17 -37 -8 -39 13 -4 9 17 13 30 8 30 -5 0 -14 -12 -21
-26z"/>
<path d="M1756 1593 c-6 -14 -5 -15 5 -6 7 7 10 15 7 18 -3 3 -9 -2 -12 -12z"/>
<path d="M8673 1493 c-18 -6 -16 -33 1 -33 15 0 30 27 18 33 -4 3 -13 2 -19 0z"/>
<path d="M8823 1434 c-18 -14 -33 -30 -33 -35 0 -18 27 -9 53 19 45 47 32 58
-20 16z"/>
<path d="M1996 1282 c-4 -13 -5 -26 -2 -29 10 -11 18 4 14 29 l-4 23 -8 -23z"/>
<path d="M3020 979 c0 -9 9 -27 20 -40 15 -19 19 -20 20 -8 0 9 -9 27 -20 40
-15 19 -19 20 -20 8z"/>
<path d="M3060 813 c0 -5 5 -15 10 -23 8 -12 10 -11 10 8 0 12 -4 22 -10 22
-5 0 -10 -3 -10 -7z"/>
<path d="M3196 788 c8 -28 12 -33 20 -25 9 8 -6 47 -17 47 -6 0 -7 -10 -3 -22z"/>
<path d="M3685 720 c3 -5 11 -10 16 -10 6 0 7 5 4 10 -3 6 -11 10 -16 10 -6 0
-7 -4 -4 -10z"/>
<path d="M3730 602 c0 -4 16 -24 36 -43 l37 -34 -28 43 c-25 39 -45 54 -45 34z"/>
<path d="M3820 571 c0 -5 5 -13 10 -16 6 -3 10 -2 10 4 0 5 -4 13 -10 16 -5 3
-10 2 -10 -4z"/>
<path d="M3880 553 c0 -4 5 -15 10 -23 8 -13 10 -13 10 2 0 9 -4 20 -10 23 -5
3 -10 3 -10 -2z"/>
<path d="M3096 532 c-8 -14 3 -62 15 -62 11 0 11 41 0 59 -6 9 -11 10 -15 3z"/>
<path d="M3891 470 c14 -31 19 -36 19 -24 0 6 -7 19 -16 30 -14 18 -14 18 -3
-6z"/>
<path d="M3977 400 c9 -17 28 -43 41 -58 l24 -27 -22 35 c-11 19 -26 45 -32
58 -6 12 -15 22 -20 22 -5 0 -1 -14 9 -30z"/>
<path d="M3950 371 c0 -6 4 -13 10 -16 6 -3 7 1 4 9 -7 18 -14 21 -14 7z"/>
<path d="M5542 293 c-20 -67 -68 -169 -108 -229 -38 -57 -41 -81 -6 -43 45 48
138 258 130 296 -2 11 -8 2 -16 -24z"/>
<path d="M3970 271 c0 -5 7 -15 17 -22 15 -13 15 -12 4 9 -12 23 -21 28 -21
13z"/>
<path d="M4045 252 c6 -4 26 -31 44 -60 19 -29 36 -51 38 -48 8 8 -46 103 -62
110 -22 8 -32 7 -20 -2z"/>
</g>
</svg>
